<?xml version="1.0" encoding="UTF-8" standalone="no"?>
<svg
   xmlns:dc="http://purl.org/dc/elements/1.1/"
   xmlns:cc="http://creativecommons.org/ns#"
   xmlns:rdf="http://www.w3.org/1999/02/22-rdf-syntax-ns#"
   xmlns:svg="http://www.w3.org/2000/svg"
   xmlns="http://www.w3.org/2000/svg"
   xmlns:sodipodi="http://sodipodi.sourceforge.net/DTD/sodipodi-0.dtd"
   xmlns:inkscape="http://www.inkscape.org/namespaces/inkscape"
   version="1.1"
   id="Capa_1"
   x="0px"
   y="0px"
   viewBox="0 0 349.30792 1044"
   xml:space="preserve"
   sodipodi:docname="bulb-center.svg"
   inkscape:version="1.0.1 (3bc2e813f5, 2020-09-07)"
   width="349.30792"
   height="1044"
   inkscape:export-filename="bulb-center.png"
   inkscape:export-xdpi="95.915375"
   inkscape:export-ydpi="95.915375"><metadata
   id="metadata91"><rdf:RDF><cc:Work
       rdf:about=""><dc:format>image/svg+xml</dc:format><dc:type
         rdf:resource="http://purl.org/dc/dcmitype/StillImage" /><dc:title></dc:title></cc:Work></rdf:RDF></metadata><defs
   id="defs89">
	

		
	</defs><sodipodi:namedview
   pagecolor="#ffffff"
   bordercolor="#666666"
   borderopacity="1"
   objecttolerance="10"
   gridtolerance="10"
   guidetolerance="10"
   inkscape:pageopacity="0"
   inkscape:pageshadow="2"
   inkscape:window-width="1558"
   inkscape:window-height="1008"
   id="namedview87"
   showgrid="false"
   inkscape:zoom="0.58695387"
   inkscape:cx="-361.28959"
   inkscape:cy="459.04352"
   inkscape:window-x="0"
   inkscape:window-y="0"
   inkscape:window-maximized="0"
   inkscape:current-layer="Capa_1"
   inkscape:document-rotation="0"
   lock-margins="false"
   fit-margin-top="10"
   fit-margin-left="10"
   fit-margin-right="10"
   fit-margin-bottom="0" />
<path
   d="M 290.66793,57.813 C 259.58693,26.951 218.43693,10 174.66493,10 c -0.396,0 -0.801,10e-4 -1.197,0.004 -42.734,0.301 -83.195005,17.044 -113.931005,47.145 -30.742,30.107 -48.313,70.211 -49.474,112.922 -1.2109997,44.509 15.092,86.664 45.906,118.701 24.265,25.228 37.628,58.783 37.628,94.486 v 68.682 c 0,14.111 9.797005,25.97 22.943005,29.151 v 9.158 c 0,17.507 14.243,31.75 31.75,31.75 h 52.5 c 17.507,0 31.75,-14.243 31.75,-31.75 v -9.105 c 13.261,-3.099 23.171,-15.012 23.171,-29.204 v -68.68 c 0,-35.236 13.73,-69.179 38.663,-95.575 28.976,-30.677 44.934,-70.819 44.934,-113.032 0,-44.2 -17.274,-85.695 -48.64,-116.84 z"
   id="path2"
   style="fill:#000000" /><path
   id="path972"
   style="fill:#ffff00"
   d="m 279.83593,273.951 c -26.522,28.08 -41.938,63.714 -43.908,101.113 h -122.536 c -1.909,-37.823 -17.010005,-73.128 -43.008005,-100.157 -27.07,-28.144 -41.393,-65.183 -40.328,-104.292 2.094,-76.99 66.491,-140.068 143.553005,-140.612 38.894,-0.273 75.414,14.643 102.968,42.002 27.557,27.362 42.732,63.817 42.732,102.648 0,37.086 -14.019,72.35 -39.473,99.298 z"
   sodipodi:nodetypes="ccccccssc" /><path
   d="m 235.71193,451.94 c 0,5.512 -4.484,9.997 -9.997,9.997 h -3.174 -96 -2.946 c -5.513,0 -9.997,-4.485 -9.997,-9.997 v -56.875 h 122.114 z"
   id="path970"
   style="fill:#808080" /><path
   d="m 212.54093,490.25 c 0,6.479 -5.271,11.75 -11.75,11.75 h -52.5 c -6.479,0 -11.75,-5.271 -11.75,-11.75 v -8.313 h 76 z"
   id="path968"
   style="fill:#808080" />








<g
   id="g56"
   transform="translate(-81.459075,9.999)">
</g>
<g
   id="g58"
   transform="translate(-81.459075,9.999)">
</g>
<g
   id="g60"
   transform="translate(-81.459075,9.999)">
</g>
<g
   id="g62"
   transform="translate(-81.459075,9.999)">
</g>
<g
   id="g64"
   transform="translate(-81.459075,9.999)">
</g>
<g
   id="g66"
   transform="translate(-81.459075,9.999)">
</g>
<g
   id="g68"
   transform="translate(-81.459075,9.999)">
</g>
<g
   id="g70"
   transform="translate(-81.459075,9.999)">
</g>
<g
   id="g72"
   transform="translate(-81.459075,9.999)">
</g>
<g
   id="g74"
   transform="translate(-81.459075,9.999)">
</g>
<g
   id="g76"
   transform="translate(-81.459075,9.999)">
</g>
<g
   id="g78"
   transform="translate(-81.459075,9.999)">
</g>
<g
   id="g80"
   transform="translate(-81.459075,9.999)">
</g>
<g
   id="g82"
   transform="translate(-81.459075,9.999)">
</g>
<g
   id="g84"
   transform="translate(-81.459075,9.999)">
</g>
</svg>
