<?xml version="1.0" encoding="iso-8859-1"?>
<!-- Generator: Adobe Illustrator 19.0.0, SVG Export Plug-In . SVG Version: 6.00 Build 0)  -->
<svg version="1.1" id="Layer_1" xmlns="http://www.w3.org/2000/svg" xmlns:xlink="http://www.w3.org/1999/xlink" x="0px" y="0px"
	 viewBox="0 0 512 512" style="enable-background:new 0 0 512 512;" xml:space="preserve">
<g>
	<g>
		<g>
			<path d="M77.913,36.986C34.952,36.986,0,71.938,0,114.899c0,29.072,16.533,74.902,40.883,99.275l-9.326,34.189
				c-0.913,3.347-0.213,6.929,1.892,9.685c2.106,2.758,5.376,4.375,8.845,4.375h29.802c-1.484,2.828-3.562,5.318-6.056,8.294
				c-6.115,7.3-13.727,16.387-13.727,33.72c0,17.332,7.612,26.418,13.729,33.72c5.137,6.133,8.531,10.184,8.531,19.424
				c0,9.243-3.395,13.294-8.533,19.429c-6.116,7.302-13.728,16.39-13.728,33.722c0,17.333,7.612,26.421,13.728,33.723
				c5.138,6.135,8.533,10.187,8.533,19.428c0,6.146,4.984,11.13,11.13,11.13s11.13-4.984,11.13-11.13
				c0-17.332-7.612-26.42-13.728-33.722c-5.138-6.135-8.533-10.187-8.533-19.429c0-9.242,3.395-13.293,8.533-19.427
				c6.116-7.303,13.728-16.391,13.728-33.724c0-17.332-7.612-26.418-13.729-33.72c-5.137-6.133-8.531-10.184-8.531-19.424
				c0-9.24,3.395-13.292,8.533-19.425c4.649-5.55,10.153-12.141,12.531-22.59h17.893c3.469,0,6.741-1.617,8.845-4.375
				c2.106-2.757,2.806-6.338,1.892-9.685l-9.325-34.189c24.35-24.371,40.883-70.202,40.883-99.273
				C155.826,71.938,120.874,36.986,77.913,36.986z M56.869,240.161l5.061-18.554h31.967l5.061,18.554H56.869z M98.294,199.346
				H57.532c-20.083-19.186-35.271-59.993-35.271-84.447c0-30.687,24.966-55.652,55.652-55.652c30.687,0,55.652,24.966,55.652,55.652
				C133.565,139.353,118.377,180.161,98.294,199.346z"/>
			<path d="M77.913,81.508c-18.412,0-33.391,14.979-33.391,33.391c0,8.26,2.302,17.599,4.233,23.979
				c1.456,4.809,5.871,7.909,10.648,7.909c1.067,0,2.155-0.155,3.229-0.48c5.884-1.781,9.209-7.994,7.43-13.877
				c-2.085-6.885-3.279-13.274-3.279-17.532c0-6.137,4.993-11.13,11.13-11.13c6.146,0,11.13-4.984,11.13-11.13
				S84.059,81.508,77.913,81.508z"/>
			<path d="M256,36.986c-42.961,0-77.913,34.952-77.913,77.913c0,29.072,16.533,74.902,40.883,99.275l-9.326,34.189
				c-0.913,3.347-0.213,6.929,1.892,9.685c2.106,2.758,5.376,4.375,8.845,4.375h29.802c-1.484,2.828-3.562,5.318-6.056,8.294
				c-6.116,7.302-13.728,16.388-13.728,33.721c0,17.332,7.612,26.418,13.729,33.72c5.137,6.133,8.531,10.184,8.531,19.424
				c0,9.243-3.395,13.294-8.533,19.429c-6.115,7.3-13.727,16.388-13.727,33.721c0,17.333,7.612,26.421,13.728,33.723
				c5.138,6.135,8.533,10.187,8.533,19.428c0,6.146,4.984,11.13,11.13,11.13s11.13-4.984,11.13-11.13
				c0-17.332-7.612-26.42-13.728-33.722c-5.138-6.135-8.533-10.187-8.533-19.429c0-9.242,3.395-13.293,8.533-19.427
				c6.116-7.303,13.728-16.391,13.728-33.724c0-17.332-7.612-26.418-13.729-33.72c-5.137-6.133-8.531-10.184-8.531-19.424
				c0-9.24,3.395-13.292,8.533-19.425c4.649-5.55,10.153-12.141,12.531-22.59h17.893c3.469,0,6.741-1.617,8.845-4.375
				c2.106-2.757,2.806-6.338,1.892-9.685l-9.325-34.189c24.35-24.371,40.883-70.202,40.883-99.273
				C333.913,71.938,298.961,36.986,256,36.986z M234.956,240.161l5.061-18.554h31.968l5.061,18.554H234.956z M276.381,199.346
				H235.62c-20.084-19.186-35.272-59.993-35.272-84.447c0-30.687,24.966-55.652,55.652-55.652c30.687,0,55.652,24.966,55.652,55.652
				C311.652,139.353,296.464,180.161,276.381,199.346z"/>
			<path d="M256.001,81.508c-18.412,0-33.391,14.979-33.391,33.391c0,8.26,2.302,17.599,4.233,23.979
				c1.456,4.809,5.871,7.909,10.648,7.909c1.066,0,2.154-0.155,3.228-0.48c5.883-1.781,9.209-7.994,7.43-13.877
				c-2.084-6.885-3.278-13.274-3.278-17.532c0-6.137,4.993-11.13,11.13-11.13c6.146,0,11.13-4.984,11.13-11.13
				S262.147,81.508,256.001,81.508z"/>
			<path d="M434.088,81.508c-18.412,0-33.391,14.979-33.391,33.391c0,8.26,2.302,17.599,4.233,23.979
				c1.456,4.809,5.871,7.909,10.648,7.909c1.066,0,2.154-0.155,3.228-0.48c5.884-1.781,9.209-7.994,7.43-13.877
				c-2.084-6.885-3.278-13.274-3.278-17.532c0-6.137,4.993-11.13,11.13-11.13c6.146,0,11.13-4.984,11.13-11.13
				S440.234,81.508,434.088,81.508z"/>
			<path d="M471.117,214.173C495.467,189.802,512,143.971,512,114.899c0-42.961-34.952-77.913-77.913-77.913
				s-77.913,34.952-77.913,77.913c0,29.072,16.533,74.902,40.883,99.275l-9.326,34.189c-0.913,3.347-0.213,6.929,1.892,9.685
				c2.106,2.758,5.376,4.375,8.845,4.375h29.802c-1.484,2.828-3.562,5.318-6.056,8.294c-6.116,7.302-13.728,16.388-13.728,33.721
				c0,17.332,7.612,26.418,13.729,33.72c5.137,6.133,8.531,10.184,8.531,19.424c0,9.243-3.395,13.294-8.533,19.429
				c-6.115,7.3-13.727,16.388-13.727,33.721c0,17.333,7.612,26.421,13.728,33.723c5.138,6.135,8.533,10.187,8.533,19.428
				c0,6.146,4.984,11.13,11.13,11.13s11.13-4.984,11.13-11.13c0-17.332-7.612-26.42-13.728-33.722
				c-5.138-6.135-8.533-10.187-8.533-19.429c0-9.242,3.395-13.293,8.533-19.427c6.116-7.303,13.728-16.391,13.728-33.724
				c0-17.332-7.612-26.418-13.729-33.72c-5.137-6.133-8.531-10.184-8.531-19.424c0-9.24,3.395-13.292,8.533-19.425
				c4.649-5.55,10.153-12.141,12.531-22.59h17.893c3.469,0,6.741-1.617,8.845-4.375c2.106-2.757,2.806-6.338,1.892-9.685
				L471.117,214.173z M413.043,240.161l5.061-18.554h31.968l5.061,18.554H413.043z M454.468,199.346h-40.761
				c-20.084-19.186-35.272-59.993-35.272-84.447c0-30.687,24.966-55.652,55.652-55.652c30.687,0,55.652,24.966,55.652,55.652
				C489.739,139.353,474.551,180.161,454.468,199.346z"/>
		</g>
	</g>
</g>
<g>
</g>
<g>
</g>
<g>
</g>
<g>
</g>
<g>
</g>
<g>
</g>
<g>
</g>
<g>
</g>
<g>
</g>
<g>
</g>
<g>
</g>
<g>
</g>
<g>
</g>
<g>
</g>
<g>
</g>
</svg>
