<?xml version="1.0" encoding="iso-8859-1"?>
<!-- Generator: Adobe Illustrator 19.0.0, SVG Export Plug-In . SVG Version: 6.00 Build 0)  -->
<svg version="1.1" id="Layer_1" xmlns="http://www.w3.org/2000/svg" xmlns:xlink="http://www.w3.org/1999/xlink" x="0px" y="0px"
	 viewBox="0 0 512.001 512.001" style="enable-background:new 0 0 512.001 512.001;" xml:space="preserve">
<g>
	<g>
		<g>
			<path d="M411.886,343.317h-6.655c-18.133-39.453-25.576-92.333-24.822-128.827c0.51-24.714-6.002-48.384-18.621-68.79
				l33.313,4.307c1.717,0.222,3.427,0.332,5.127,0.332c9.627,0,18.863-3.527,26.439-10.186c9.829-8.64,15.466-21.445,15.466-35.13
				V45.317c0-13.685-5.637-26.49-15.466-35.13c-8.912-7.835-20.126-11.335-31.566-9.855L280.464,15.154
				c-7.495-3.291-15.767-5.13-24.464-5.13c-8.697,0-16.968,1.839-24.464,5.13L116.9,0.332c-11.44-1.48-22.653,2.021-31.566,9.855
				c-9.829,8.64-15.466,21.445-15.466,35.13v59.707c0,13.685,5.638,26.49,15.466,35.13c7.576,6.66,16.81,10.187,26.439,10.186
				c1.698,0,3.411-0.109,5.127-0.332l33.313-4.307c-12.62,20.405-19.131,44.075-18.621,68.79
				c0.753,36.494-6.69,89.374-24.822,128.827h-6.655c-19.885,0-36.063,16.178-36.063,36.063v32.573
				c0,19.885,16.178,36.063,36.063,36.063h109.353v17.45c0,25.658,20.875,46.533,46.533,46.533s46.533-20.875,46.533-46.533v-17.45
				h109.353c19.885,0,36.063-16.178,36.063-36.063v-32.573C447.949,359.494,431.772,343.317,411.886,343.317z M365.16,63.536
				h-48.569c-1.294-10.425-5.219-20.038-11.096-28.158l92.589-11.971c4.708-0.61,9.406,0.902,13.221,4.255
				c4.805,4.224,7.562,10.66,7.562,17.655v59.707c0,6.996-2.756,13.431-7.562,17.655c-3.815,3.354-8.511,4.866-13.221,4.255
				l-98.815-12.777c7.441-7.477,12.956-16.865,15.749-27.354h50.142c6.425,0,11.633-5.208,11.633-11.633
				C376.793,68.744,371.585,63.536,365.16,63.536z M256,33.291c20.847,0,37.808,16.961,37.808,37.808S276.847,108.907,256,108.907
				c-20.847,0-37.808-16.961-37.808-37.808S235.154,33.291,256,33.291z M113.917,126.934c-4.709,0.612-9.405-0.902-13.221-4.255
				c-4.805-4.224-7.562-10.66-7.562-17.655V45.317c0-6.996,2.756-13.431,7.562-17.655c3.262-2.866,7.166-4.387,11.175-4.387
				c0.679,0,1.363,0.044,2.046,0.133l92.59,11.972c-5.877,8.121-9.802,17.735-11.096,28.158h-48.569
				c-6.425,0-11.633,5.208-11.633,11.633s5.208,11.633,11.633,11.633h50.142c2.793,10.489,8.309,19.878,15.749,27.354
				L113.917,126.934z M154.855,214.011c-0.562-27.225,9.31-52.878,27.793-72.503l72.386-9.359c0.323,0.005,0.643,0.024,0.968,0.024
				c0.325,0,0.644-0.02,0.968-0.024l72.386,9.359c18.483,19.625,28.355,45.279,27.793,72.503
				c-0.898,43.534,7.842,92.174,22.767,129.306H132.087C147.012,306.185,155.753,257.546,154.855,214.011z M279.267,465.467
				c0,12.829-10.437,23.267-23.267,23.267c-12.829,0-23.267-10.437-23.267-23.267v-17.45h46.533V465.467z M424.683,411.953
				c0,7.056-5.741,12.797-12.797,12.797H100.115c-7.056,0-12.797-5.741-12.797-12.797V379.38c0-7.056,5.741-12.797,12.797-12.797
				h311.772c7.056,0,12.797,5.741,12.797,12.797V411.953z"/>
			<path d="M322.008,224.925c0.093,0,0.174,0,0.256,0c6.305,0,11.494-5.049,11.622-11.389c0.128-6.433-4.967-11.738-11.389-11.878
				c-6.422-0.128-11.738,4.967-11.878,11.389C310.491,219.469,315.586,224.786,322.008,224.925z"/>
			<path d="M323.741,253.973c-6.387,0.779-10.924,6.584-10.144,12.959c0.721,5.898,5.735,10.226,11.529,10.226
				c0.477,0,0.954-0.023,1.431-0.081c6.375-0.779,10.912-6.584,10.133-12.959C335.909,257.742,330.116,253.206,323.741,253.973z"/>
			<path d="M181.966,297.085c-6.259-1.454-12.517,2.443-13.96,8.702c-1.454,6.259,2.443,12.519,8.702,13.96
				c0.884,0.209,1.768,0.302,2.641,0.302c5.293,0,10.074-3.63,11.319-9.004C192.122,304.787,188.225,298.528,181.966,297.085z"/>
			<path d="M188.993,245.214c-6.387-0.64-12.099,4.013-12.738,10.412c-0.651,6.387,4.013,12.099,10.412,12.738
				c0.396,0.035,0.779,0.058,1.175,0.058c5.898,0,10.958-4.467,11.563-10.47C200.044,251.566,195.391,245.865,188.993,245.214z"/>
		</g>
	</g>
</g>
<g>
</g>
<g>
</g>
<g>
</g>
<g>
</g>
<g>
</g>
<g>
</g>
<g>
</g>
<g>
</g>
<g>
</g>
<g>
</g>
<g>
</g>
<g>
</g>
<g>
</g>
<g>
</g>
<g>
</g>
</svg>
