<?xml version="1.0" encoding="iso-8859-1"?>
<!-- Generator: Adobe Illustrator 19.0.0, SVG Export Plug-In . SVG Version: 6.00 Build 0)  -->
<svg version="1.1" id="Layer_1" xmlns="http://www.w3.org/2000/svg" xmlns:xlink="http://www.w3.org/1999/xlink" x="0px" y="0px"
	 viewBox="0 0 512.001 512.001" style="enable-background:new 0 0 512.001 512.001;" xml:space="preserve">
<g>
	<g>
		<g>
			<path d="M460.036,146.149c-20.507,0-31.545,7.442-40.415,13.42c-7.877,5.311-14.099,9.505-27.601,9.505
				c-13.502,0-19.723-4.194-27.6-9.505c-8.87-5.979-19.908-13.42-40.415-13.42s-31.544,7.442-40.414,13.42
				c-7.877,5.311-14.099,9.505-27.599,9.505c-13.5,0-19.721-4.194-27.598-9.505c-8.869-5.979-19.907-13.42-40.413-13.42
				c-20.506,0-31.543,7.442-40.412,13.42c-7.876,5.311-14.097,9.505-27.595,9.505c-13.5,0-19.722-4.194-27.598-9.505
				c-8.869-5.979-19.907-13.42-40.412-13.42c-6.331,0-11.463,5.133-11.463,11.463v51.582c0,1.146,0.173,2.25,0.486,3.294
				l-0.009,0.002c14.496,48.669,77.792,107.761,138.222,161.696v44.507l-22.484,78.695c-0.988,3.458-0.296,7.18,1.871,10.052
				c2.166,2.873,5.555,4.561,9.151,4.561c15.91,0,24.241-8.657,30.326-14.976c5.306-5.512,7.901-7.949,13.808-7.949
				c5.908,0,8.503,2.437,13.809,7.949c6.083,6.321,14.415,14.976,30.326,14.976c15.909,0,24.24-8.657,30.323-14.976
				c5.305-5.512,7.899-7.949,13.805-7.949c5.907,0,8.501,2.437,13.806,7.949c6.083,6.321,14.414,14.976,30.325,14.976
				c3.597,0,6.985-1.688,9.151-4.561c2.167-2.871,2.859-6.593,1.871-10.052l-22.484-78.695v-44.507
				c60.43-53.934,123.726-113.027,138.222-161.695l-0.009-0.002c0.313-1.044,0.486-2.148,0.486-3.294v-51.582
				C471.498,151.282,466.366,146.149,460.036,146.149z M300.134,466.149c-15.909,0-24.24,8.657-30.323,14.976
				c-5.305,5.512-7.899,7.949-13.805,7.949c-5.908,0-8.502-2.437-13.808-7.949c-6.083-6.32-14.415-14.976-30.326-14.976
				c-11.911,0-19.575,4.851-25.228,9.943l12.666-44.331h113.382l12.665,44.328C319.705,470.999,312.042,466.149,300.134,466.149z
				 M202.125,408.836v-28.657h107.749v28.657H202.125z M317.341,357.254h-49.878v-56.74c0-6.33-5.132-11.463-11.463-11.463
				c-6.331,0-11.463,5.133-11.463,11.463v56.74H194.66C144.712,312.685,92.873,264.71,71.121,224.923
				c2.884,1.496,5.553,3.29,8.441,5.238c8.87,5.979,19.907,13.421,40.413,13.421c20.506,0,31.543-7.442,40.412-13.421
				c7.876-5.311,14.097-9.505,27.595-9.505c13.5,0,19.722,4.194,27.598,9.505c8.869,5.979,19.907,13.421,40.413,13.421
				c20.507,0,31.544-7.442,40.414-13.421c7.877-5.311,14.099-9.505,27.599-9.505c13.501,0,19.724,4.194,27.601,9.505
				c8.87,5.979,19.908,13.421,40.415,13.421c20.507,0,31.545-7.442,40.415-13.421c2.891-1.949,5.561-3.744,8.447-5.241
				C419.13,264.709,367.29,312.684,317.341,357.254z M448.573,198.59c-13.471,2.125-21.898,7.807-28.952,12.562
				c-7.877,5.311-14.099,9.505-27.601,9.505c-13.502,0-19.723-4.194-27.6-9.505c-8.87-5.979-19.908-13.421-40.415-13.421
				s-31.544,7.442-40.414,13.421c-7.877,5.311-14.099,9.505-27.599,9.505c-13.5,0-19.721-4.194-27.598-9.505
				c-8.869-5.979-19.907-13.421-40.413-13.421c-20.506,0-31.543,7.442-40.412,13.421c-7.876,5.311-14.097,9.505-27.595,9.505
				c-13.5,0-19.722-4.194-27.598-9.505c-7.054-4.755-15.479-10.436-28.949-12.562v-28.216c6.394,1.64,10.899,4.677,16.133,8.206
				C88.431,184.558,99.468,192,119.974,192c20.506,0,31.543-7.442,40.412-13.421c7.876-5.311,14.097-9.505,27.595-9.505
				c13.5,0,19.722,4.194,27.598,9.505c8.869,5.979,19.907,13.421,40.413,13.421c20.507,0,31.544-7.442,40.414-13.421
				c7.877-5.311,14.099-9.505,27.599-9.505c13.501,0,19.724,4.194,27.601,9.505c8.87,5.979,19.908,13.421,40.415,13.421
				s31.545-7.442,40.415-13.421c5.236-3.529,9.741-6.567,16.138-8.206V198.59z"/>
			<path d="M84.446,123.118c0.487,0.063,26.824,0.063,27.311,0c26.338-1.508,48.056-20.921,52.274-47.286
				c0.054-0.342,0.094-0.684,0.117-1.028l4.278-62.558c0.217-3.169-0.891-6.285-3.058-8.606C163.2,1.317,160.167,0,156.991,0
				c-0.948,0-1.894,0.016-2.836,0.047c-23.029,0.759-42.672,11.26-56.059,28.709C84.709,11.313,65.073,0.806,42.048,0.047
				C41.105,0.016,40.16,0,39.212,0c-3.176,0-6.209,1.317-8.377,3.639c-2.168,2.32-3.275,5.437-3.058,8.606l4.278,62.558
				c0.024,0.344,0.063,0.688,0.117,1.028C36.39,102.198,58.108,121.611,84.446,123.118z M144.627,24.245l-3.313,48.439
				c-2.115,12.13-10.501,21.708-21.527,25.653l-4.238-27.162c-1.067-6.836-2.735-13.291-4.93-19.327
				C117.315,38.802,128.339,27.907,144.627,24.245z M92.899,74.711l3.992,25.587H87.75c-16.322,0-30.065-11.584-32.86-27.615
				l-3.313-48.439C76.913,29.942,89.531,53.132,92.899,74.711z"/>
			<path d="M189.953,74.803c0.024,0.344,0.063,0.688,0.117,1.028c4.218,26.365,25.937,45.779,52.276,47.286
				c0.487,0.063,26.824,0.063,27.311,0c26.338-1.508,48.056-20.921,52.274-47.286c0.054-0.342,0.094-0.684,0.117-1.028l4.278-62.558
				c0.217-3.169-0.891-6.285-3.058-8.606C321.099,1.317,318.066,0,314.89,0c-0.948,0-1.894,0.016-2.836,0.047
				c-23.029,0.759-42.672,11.26-56.059,28.709c-13.388-17.444-33.023-27.952-56.049-28.709C199.003,0.016,198.059,0,197.111,0
				c-3.176,0-6.209,1.317-8.377,3.639c-2.168,2.32-3.275,5.437-3.058,8.606L189.953,74.803z M302.526,24.245l-3.313,48.439
				c-2.115,12.13-10.501,21.708-21.527,25.653l-4.238-27.162c-1.067-6.836-2.735-13.291-4.93-19.327
				C275.214,38.802,286.237,27.907,302.526,24.245z M250.797,74.711l3.992,25.587h-9.141c-16.322,0-30.065-11.584-32.86-27.615
				l-3.313-48.439C234.811,29.942,247.429,53.132,250.797,74.711z"/>
			<path d="M481.166,3.639C478.997,1.317,475.964,0,472.788,0c-0.948,0-1.894,0.016-2.836,0.047
				c-23.029,0.759-42.672,11.26-56.059,28.709C400.504,11.313,380.87,0.805,357.844,0.047C356.901,0.016,355.957,0,355.009,0
				c-3.176,0-6.209,1.317-8.377,3.639c-2.168,2.32-3.275,5.437-3.058,8.606l4.278,62.558c0.024,0.344,0.063,0.688,0.117,1.028
				c4.218,26.365,25.937,45.779,52.276,47.286c0.487,0.063,26.824,0.063,27.311,0c26.338-1.508,48.056-20.921,52.274-47.286
				c0.054-0.342,0.094-0.684,0.117-1.028l4.278-62.558C484.441,9.076,483.334,5.959,481.166,3.639z M403.546,100.297v0.001
				c-16.322,0-30.065-11.584-32.86-27.615l-3.313-48.439c25.337,5.697,37.955,28.886,41.322,50.466l3.992,25.587H403.546z
				 M457.112,72.684c-2.115,12.13-10.501,21.708-21.527,25.653l-4.238-27.162c-1.067-6.836-2.735-13.291-4.93-19.327
				c6.695-13.047,17.719-23.941,34.007-27.603L457.112,72.684z"/>
		</g>
	</g>
</g>
<g>
</g>
<g>
</g>
<g>
</g>
<g>
</g>
<g>
</g>
<g>
</g>
<g>
</g>
<g>
</g>
<g>
</g>
<g>
</g>
<g>
</g>
<g>
</g>
<g>
</g>
<g>
</g>
<g>
</g>
</svg>
