<?xml version="1.0" encoding="iso-8859-1"?>
<!-- Generator: Adobe Illustrator 19.0.0, SVG Export Plug-In . SVG Version: 6.00 Build 0)  -->
<svg version="1.1" id="Layer_1" xmlns="http://www.w3.org/2000/svg" xmlns:xlink="http://www.w3.org/1999/xlink" x="0px" y="0px"
	 viewBox="0 0 511.999 511.999" style="enable-background:new 0 0 511.999 511.999;" xml:space="preserve">
<g>
	<g>
		<path d="M386.055,56.541c-0.15-0.171-8.925-9.397-9.789-10.222C345.224,16.528,304.58,0.102,261.41,0c-0.135,0-0.271,0-0.405,0
			c-44.209,0-85.675,17.126-116.799,48.249l-0.518,0.518L122.28,70.175c-18.242,18.243-18.242,47.926,0,66.167
			c9.122,9.121,21.103,13.682,33.084,13.682s23.963-4.561,33.084-13.682l0.62-0.62c0,0,22.076-22.052,22.736-22.666
			c0.009-0.008,0.018-0.016,0.025-0.024c3.779-3.828,9.908-7.823,17.034-11.971c10.451-5.257,21.926-7.817,33.394-7.675
			c13.588,0.473,25.233,4.395,25.241,4.842c9.236,3.547,17.905,9.024,25.348,16.468c0.798,0.798,11.884,15.702,14.762,22.119
			c8.236,21.035,7.685,40.3-0.192,59.962c-3.446,7.389-8.205,14.308-14.291,20.395L98.148,432.15
			c-18.242,18.243-18.242,47.925,0,66.167c9.122,9.121,21.103,13.682,33.084,13.682s23.963-4.561,33.084-13.682l214.979-214.979
			C441.305,221.328,443.498,121.739,386.055,56.541z M194.804,98.848l-0.518,0.518l-20.788,20.788
			c-9.591,9.591-25.253,9.538-34.91-0.119c-4.685-4.685-7.275-10.903-7.29-17.506c-0.015-6.583,2.531-12.765,7.171-17.404
			l20.788-20.788c11.577-11.576,24.75-20.933,39.281-27.917l11.137,50.319C204.413,90.194,199.424,94.229,194.804,98.848z
			 M229.999,76.691L219.251,28.13c6.998-2.112,14.186-3.68,21.509-4.703l10.726,48.462C244.196,72.649,236.98,74.241,229.999,76.691
			z M405.132,155.771l-49.023,7.349c-0.237-7.333-1.321-14.642-3.25-21.777l48.97-7.342
			C403.482,141.182,404.589,148.46,405.132,155.771z M367.972,69.341c0.621,0.684,1.233,1.375,1.841,2.07
			c0.092,0.106,0.186,0.209,0.277,0.315c10.575,12.179,19.056,26.088,25.024,41.021l-50.742,7.608
			c-1.67-3.024-3.517-5.976-5.543-8.84l29.056-42.267C367.913,69.28,367.943,69.31,367.972,69.341z M284.337,74.183
			c-3.376-0.84-6.789-1.484-10.223-1.947l-11.076-50.048c17.274,0.212,34.351,3.496,50.382,9.69L284.337,74.183z M323.658,94.717
			c-5.651-4.934-11.738-9.109-18.143-12.477l28.026-40.768c6.317,3.676,12.376,7.848,18.128,12.497L323.658,94.717z
			 M115.368,481.097c-6.53-6.529-8.653-15.801-6.388-24.088l30.476,30.476C131.169,489.75,121.897,487.628,115.368,481.097z
			 M157.303,474.194l-35.03-35.03l15.569-15.569l35.03,35.03L157.303,474.194z M188.439,443.056l-35.03-35.03l22.576-22.575
			l35.03,35.029L188.439,443.056z M226.583,404.913l-35.03-35.03l15.569-15.569l35.03,35.03L226.583,404.913z M257.721,373.774
			l-35.03-35.029l22.576-22.575l35.029,35.03L257.721,373.774z M295.865,335.631l-35.03-35.03l15.569-15.569l35.03,35.03
			L295.865,335.631z M327.001,304.493l-35.029-35.03l20.455-20.454l39.034,31.024L327.001,304.493z M367.062,264.307l-38.965-30.969
			l0.598-0.599c5.115-5.115,9.49-10.692,13.176-16.579l38.951,30.958C376.742,253.114,372.156,258.862,367.062,264.307z
			 M391.743,227.672l-40.272-32.009c1.074-3.285,1.965-6.616,2.671-9.983l50.748-7.608
			C403.493,195.3,399.038,212.108,391.743,227.672z"/>
	</g>
</g>
<g>
</g>
<g>
</g>
<g>
</g>
<g>
</g>
<g>
</g>
<g>
</g>
<g>
</g>
<g>
</g>
<g>
</g>
<g>
</g>
<g>
</g>
<g>
</g>
<g>
</g>
<g>
</g>
<g>
</g>
</svg>
