<?xml version="1.0" encoding="iso-8859-1"?>
<!-- Generator: Adobe Illustrator 19.0.0, SVG Export Plug-In . SVG Version: 6.00 Build 0)  -->
<svg version="1.1" id="Layer_1" xmlns="http://www.w3.org/2000/svg" xmlns:xlink="http://www.w3.org/1999/xlink" x="0px" y="0px"
	 viewBox="0 0 511.999 511.999" style="enable-background:new 0 0 511.999 511.999;" xml:space="preserve">
<g>
	<g>
		<g>
			<path d="M506.783,49.187c-4.13-2.432-9.376-1.786-12.792,1.574c-25.76,25.335-57.121,42.633-91.74,50.783
				c8.293-14.148,14.667-30.158,13.849-45.177c-0.255-4.682-3.536-8.679-8.098-9.763c-4.563-1.085-9.27,0.921-11.603,4.989
				c-0.716,1.197-18.084,29.216-64.619,21.793c-26.828-4.283-45.359-1.966-56.651,7.077c-4.563,3.654-10.126,10.29-11.011,21.263
				c-0.52,2.698-2.524,5.496-5.84,5.496h-4.554c-3.315,0-5.321-2.8-5.843-5.498c-0.885-10.972-6.449-17.608-11.011-21.261
				c-11.293-9.042-29.824-11.358-56.651-7.077c-46.533,7.429-63.902-20.596-64.57-21.709c-2.333-4.069-7.065-6.112-11.627-5.031
				c-4.562,1.084-7.868,5.04-8.123,9.722c-0.818,15.018,5.556,31.028,13.849,45.177c-34.62-8.149-65.981-25.448-91.741-50.782
				c-3.417-3.361-8.666-4.005-12.792-1.574c-4.128,2.43-6.109,7.332-4.83,11.949c12.871,46.425,28.455,89.576,49.044,135.792
				c14.769,33.147,46.408,55.904,82.573,59.389l6.1,0.582c4.266,0.404,8.495,0.603,12.679,0.603
				c21.385-0.001,41.458-5.22,57.521-15.103c21.01-12.926,34.46-32.821,38.896-57.532c0.772-4.301,4.474-7.421,8.801-7.421
				c4.327,0,8.03,3.12,8.8,7.421c4.437,24.711,17.887,44.606,38.896,57.532c19.207,11.817,44.139,16.971,70.203,14.499l6.008-0.573
				c12.441-1.199,24.347-4.672,35.215-10.057v198.248c0,0,0.239,9.736,0.656,10.872c1.851,5.964,7.412,10.297,13.985,10.297h34.158
				c6.181,0,11.458-3.837,13.606-9.254c0.7-1.413,1.103-2.999,1.103-4.683V158.932c12.981-32.485,23.697-64.291,32.984-97.797
				C512.892,56.519,510.911,51.617,506.783,49.187z M457.46,444.518H436.29v-212.3c8.33-7.176,15.51-15.722,21.169-25.372V444.518z
				 M459.077,150.836c-0.659,1.053-1.147,2.224-1.404,3.482c-4.524,11.205-9.321,22.502-14.442,33.997
				c-11.67,26.194-36.714,44.18-65.354,46.941l-5.975,0.57c-45.649,4.308-79.524-17.149-86.267-54.697
				c-2.584-14.399-15.048-24.85-29.637-24.85c-14.588,0-27.053,10.45-29.638,24.85c-6.739,37.548-40.604,59.01-86.264,54.697
				l-6.066-0.58c-28.587-2.755-53.595-20.738-65.265-46.932c-15.14-33.984-27.509-66.257-38.062-99.458
				c29.639,20.869,63.909,33.809,100.757,37.85c4.239,0.464,8.334-1.654,10.403-5.376c2.07-3.722,1.709-8.321-0.917-11.673
				c-6.134-7.828-11.163-15.357-15.001-22.398c13.562,6.679,32.428,11.051,57.609,7.031c27.63-4.407,37.237,0.417,40.082,2.696
				c2.026,1.622,2.972,3.633,3.164,6.722c0.029,0.468,0.089,0.931,0.178,1.386c2.289,13.522,13.478,23.298,26.745,23.298h4.554
				c13.241,0,24.409-9.734,26.736-23.27c0.093-0.464,0.155-0.935,0.184-1.412c0.193-3.09,1.138-5.1,3.164-6.722
				c2.846-2.278,12.451-7.103,40.082-2.696c25.192,4.02,44.048-0.351,57.61-7.034c-3.838,7.042-8.867,14.571-15.002,22.4
				c-2.626,3.352-2.987,7.952-0.917,11.673c2.069,3.723,6.168,5.836,10.403,5.376c36.848-4.039,71.118-16.981,100.757-37.849
				C474.682,109.662,467.353,130.105,459.077,150.836z"/>
			<path d="M357.757,145.996c-26.541,5.642-42.444,32.098-43.109,33.222c-2.799,4.736-1.504,10.825,2.979,14.011
				c0.918,0.653,19.876,13.924,42.112,13.924c3.531,0,7.145-0.334,10.783-1.108c26.541-5.642,42.444-32.098,43.109-33.222
				c2.799-4.736,1.504-10.825-2.979-14.011C409.588,158.055,384.291,140.353,357.757,145.996z M388.688,170.795
				c-5.182,5.731-13.061,12.524-22.568,14.544c-9.537,2.026-19.478-0.966-26.529-4.092c5.182-5.732,13.06-12.524,22.568-14.544
				C371.689,164.675,381.636,167.667,388.688,170.795z"/>
			<path d="M154.242,145.996c-26.542-5.642-51.83,12.06-52.894,12.816c-4.483,3.187-5.777,9.276-2.979,14.011
				c0.665,1.124,16.567,27.58,43.109,33.222c3.639,0.773,7.25,1.108,10.783,1.108c22.234,0,41.193-13.271,42.111-13.924
				c4.483-3.187,5.777-9.276,2.979-14.011C196.685,178.095,180.783,151.638,154.242,145.996z M145.879,185.339
				c-9.536-2.027-17.401-8.803-22.572-14.529c7.064-3.128,17.024-6.132,26.532-4.109c9.536,2.027,17.401,8.803,22.572,14.529
				C165.347,184.359,155.384,187.36,145.879,185.339z"/>
		</g>
	</g>
</g>
<g>
</g>
<g>
</g>
<g>
</g>
<g>
</g>
<g>
</g>
<g>
</g>
<g>
</g>
<g>
</g>
<g>
</g>
<g>
</g>
<g>
</g>
<g>
</g>
<g>
</g>
<g>
</g>
<g>
</g>
</svg>
