<?xml version="1.0" encoding="iso-8859-1"?>
<!-- Generator: Adobe Illustrator 19.0.0, SVG Export Plug-In . SVG Version: 6.00 Build 0)  -->
<svg version="1.1" id="Layer_1" xmlns="http://www.w3.org/2000/svg" xmlns:xlink="http://www.w3.org/1999/xlink" x="0px" y="0px"
	 viewBox="0 0 512 512" style="enable-background:new 0 0 512 512;" xml:space="preserve">
<g>
	<g>
		<g>
			<path d="M480.612,326.477c-20.251-20.238-47.161-31.383-75.775-31.383H345.6c-10.013,0-18.158-8.146-18.158-18.158V79.578
				c0-6.576-5.331-11.907-11.907-11.907H92.874V14.487c0-6.576-5.331-11.907-11.907-11.907H44.452C19.942,2.58,0,22.521,0,47.033
				c0,24.512,19.942,44.452,44.452,44.452H69.06v271.479c0,80.755,65.7,146.456,146.456,146.456h189.321
				c59.09,0,107.163-48.073,107.163-107.163C512,373.645,500.855,346.734,480.612,326.477z M69.06,67.672H44.452
				c-11.38-0.001-20.638-9.26-20.638-20.64c0-11.381,9.259-20.638,20.638-20.638H69.06V67.672z M92.874,91.485h210.754v63.107
				H92.874V91.485z M221.47,485.606h-5.953c-6.281,0-12.452-0.476-18.482-1.392c-1.58-4.724-6.033-8.134-11.285-8.134
				c-3.264,0-6.22,1.317-8.372,3.446c-36.629-12.015-65.71-40.84-78.063-77.316c4.697-1.597,8.075-6.033,8.075-11.266
				c0-6.573-5.322-11.907-11.907-11.907c-0.523,0-1.034,0.045-1.538,0.111c-0.701-5.296-1.069-10.697-1.069-16.184v-7.74h30.958
				c53.837,0,97.637,43.8,97.637,97.637V485.606z M388.334,485.606h-143.05v-32.744c0-66.968-54.483-121.451-121.451-121.451H92.874
				V178.406h210.754v98.53c0,6.726,1.599,13.083,4.425,18.725l-21.575,21.575c-4.65,4.65-4.651,12.189,0,16.839
				c2.325,2.325,5.372,3.488,8.419,3.488s6.095-1.163,8.419-3.488l20.991-20.991c6.248,3.695,13.525,5.824,21.293,5.824h42.734
				V485.606z M412.148,485.288V319.222c19.499,1.685,37.613,10.091,51.624,24.094c15.743,15.754,24.414,36.687,24.414,58.941
				C488.186,445.753,454.696,481.574,412.148,485.288z"/>
			<path d="M198.299,108.952c-6.573,0-11.907,5.322-11.907,11.907c0,6.573,5.334,11.907,11.907,11.907
				c6.573,0,11.907-5.334,11.907-11.907C210.206,114.275,204.871,108.952,198.299,108.952z"/>
			<path d="M139.633,108.952c-6.573,0-11.907,5.322-11.907,11.907c0,6.573,5.334,11.907,11.907,11.907s11.907-5.334,11.907-11.907
				C151.54,114.275,146.206,108.952,139.633,108.952z"/>
			<path d="M256.964,108.952c-6.573,0-11.907,5.322-11.907,11.907c0,6.573,5.334,11.907,11.907,11.907
				c6.573,0,11.907-5.334,11.907-11.907C268.871,114.275,263.537,108.952,256.964,108.952z"/>
			<path d="M153.1,385.087c-6.037-2.608-13.05,0.155-15.658,6.192c-2.62,6.037,0.155,13.05,6.192,15.658
				c1.536,0.667,3.143,0.988,4.727,0.988c4.596,0,8.99-2.691,10.931-7.18C161.911,394.72,159.137,387.707,153.1,385.087z"/>
			<path d="M179.521,423.308c-6.287,1.929-9.811,8.597-7.87,14.872c1.572,5.12,6.287,8.418,11.371,8.418
				c1.167,0,2.334-0.179,3.501-0.536c6.287-1.929,9.823-8.597,7.882-14.884C192.476,424.892,185.808,421.368,179.521,423.308z"/>
			<path d="M340.54,437.978c0,6.573,5.334,11.907,11.907,11.907s11.907-5.334,11.907-11.907s-5.334-11.907-11.907-11.907
				S340.54,431.405,340.54,437.978z"/>
			<path d="M137.728,281.997c-6.585,0-11.907,5.334-11.907,11.907c0,6.573,5.322,11.907,11.907,11.907
				c6.573,0,11.907-5.334,11.907-11.907C149.635,287.331,144.301,281.997,137.728,281.997z"/>
		</g>
	</g>
</g>
<g>
</g>
<g>
</g>
<g>
</g>
<g>
</g>
<g>
</g>
<g>
</g>
<g>
</g>
<g>
</g>
<g>
</g>
<g>
</g>
<g>
</g>
<g>
</g>
<g>
</g>
<g>
</g>
<g>
</g>
</svg>
