<?xml version="1.0" encoding="iso-8859-1"?>
<!-- Generator: Adobe Illustrator 19.0.0, SVG Export Plug-In . SVG Version: 6.00 Build 0)  -->
<svg version="1.1" id="Layer_1" xmlns="http://www.w3.org/2000/svg" xmlns:xlink="http://www.w3.org/1999/xlink" x="0px" y="0px"
	 viewBox="0 0 512 512" style="enable-background:new 0 0 512 512;" xml:space="preserve">
<g>
	<g>
		<g>
			<path d="M482.376,415.907h-25.7V182.791C456.676,81.999,374.677,0,273.885,0h-35.771C137.323,0,55.324,81.999,55.324,182.791
				v233.118h-25.7c-6.173,0-11.179,5.005-11.179,11.179v73.734c0,6.174,5.006,11.179,11.179,11.179h452.751
				c6.173,0,11.179-5.005,11.179-11.179v-73.735C493.555,420.913,488.549,415.907,482.376,415.907z M77.682,182.791
				c0-88.463,71.97-160.433,160.433-160.433h35.771c88.463,0,160.433,71.97,160.433,160.433v233.118h-36.629V200.676
				c0-78.127-63.561-141.689-141.689-141.689s-141.689,63.561-141.689,141.689v215.232H77.682V182.791z M375.331,200.676v215.232
				H136.669c0,0,0-215.232,0-215.232c0-65.799,53.532-119.331,119.331-119.331S375.331,134.876,375.331,200.676z M471.197,489.642
				H40.803v-51.377h430.393V489.642z"/>
			<path d="M219.189,293.122l-24.755-24.756c15.841-2.368,28.029-16.061,28.029-32.551c0-18.15-14.766-32.916-32.916-32.916h-21.737
				c-6.173,0-11.179,5.005-11.179,11.179v43.474v43.474c0,6.174,5.006,11.179,11.179,11.179c6.173,0,11.179-5.005,11.179-11.179
				v-16.486l24.389,24.389c2.183,2.183,5.044,3.274,7.905,3.274c2.861,0,5.721-1.092,7.905-3.274
				C223.555,304.566,223.555,297.488,219.189,293.122z M178.989,246.373v-21.115h10.557c5.822,0,10.557,4.737,10.557,10.557
				s-4.735,10.557-10.557,10.557H178.989z"/>
			<path d="M256,202.9c-6.173,0-11.179,5.005-11.179,11.179v86.948c0,6.174,5.006,11.179,11.179,11.179
				c6.173,0,11.179-5.005,11.179-11.179v-86.948C267.179,207.904,262.173,202.9,256,202.9z"/>
			<path d="M300.716,202.9c-6.173,0-11.179,5.005-11.179,11.179v43.474v43.474c0,6.174,5.006,11.179,11.179,11.179
				c6.173,0,11.179-5.005,11.179-11.179v-32.295h10.557c18.149,0,32.916-14.765,32.916-32.916c0-18.15-14.765-32.917-32.916-32.917
				H300.716z M333.01,235.815c0,5.821-4.735,10.559-10.557,10.559h-10.557v-21.116h10.557
				C328.275,225.258,333.01,229.994,333.01,235.815z"/>
			<path d="M177.859,359.965c-6.171,0-11.179,5.008-11.179,11.179s5.008,11.179,11.179,11.179c6.172,0,11.179-5.008,11.179-11.179
				S184.029,359.965,177.859,359.965z"/>
			<path d="M282.047,359.965c-6.171,0-11.179,5.008-11.179,11.179s5.008,11.179,11.179,11.179s11.179-5.008,11.179-11.179
				S288.217,359.965,282.047,359.965z"/>
			<path d="M229.953,359.965c-6.172,0-11.179,5.008-11.179,11.179s5.007,11.179,11.179,11.179c6.171,0,11.179-5.008,11.179-11.179
				S236.124,359.965,229.953,359.965z"/>
			<path d="M334.14,359.965c-6.171,0-11.179,5.008-11.179,11.179s5.008,11.179,11.179,11.179c6.172,0,11.179-5.008,11.179-11.179
				S340.312,359.965,334.14,359.965z"/>
		</g>
	</g>
</g>
<g>
</g>
<g>
</g>
<g>
</g>
<g>
</g>
<g>
</g>
<g>
</g>
<g>
</g>
<g>
</g>
<g>
</g>
<g>
</g>
<g>
</g>
<g>
</g>
<g>
</g>
<g>
</g>
<g>
</g>
</svg>
