<?xml version="1.0" encoding="iso-8859-1"?>
<!-- Generator: Adobe Illustrator 19.0.0, SVG Export Plug-In . SVG Version: 6.00 Build 0)  -->
<svg version="1.1" id="Layer_1" xmlns="http://www.w3.org/2000/svg" xmlns:xlink="http://www.w3.org/1999/xlink" x="0px" y="0px"
	 viewBox="0 0 511.998 511.998" style="enable-background:new 0 0 511.998 511.998;" xml:space="preserve">
<g>
	<g>
		<g>
			<path d="M347.625,91.338c1.519,0.54,6.492,2.796,6.775,9.173c2.107,47.439,11.612,78.167,28.25,91.333
				c6.128,4.849,13.226,7.331,20.822,7.331c2.265,0,4.576-0.221,6.916-0.666c24.14-4.584,42.921-31.747,46.731-67.591
				c2.534-23.829-1.944-48.421-12.609-69.245C431.877,37,410.829,17.893,383.646,6.414c-20.698-8.739-40.594-8.548-59.13,0.575
				c-39.49,19.433-60.275,74.771-66.752,95.116h-3.531c-6.476-20.345-27.261-75.683-66.752-95.116
				c-18.534-9.121-38.429-9.313-59.13-0.575C101.169,17.891,80.123,36.999,67.487,61.67c-10.665,20.825-15.143,45.417-12.609,69.245
				c3.811,35.845,22.591,63.009,46.731,67.592c2.342,0.445,4.65,0.666,6.916,0.666c7.594-0.001,14.694-2.482,20.822-7.331
				c16.637-13.164,26.142-43.892,28.25-91.331c0.283-6.377,5.258-8.634,6.774-9.174c1.531-0.544,6.852-1.945,11.137,2.866
				c7.078,7.946,14.504,19.824,22.08,35.297c-3.64,5.117-6.587,10.813-8.664,16.987c-17.506,52.023-17.506,65.608-17.506,70.072
				c0,22.905,9.166,43.699,24.005,58.945c-0.331,1.101-0.661,2.209-0.99,3.304c-26.426,1.577-50.683,4.204-71.071,7.767
				c-44.148,7.712-62.985,17.871-62.985,33.967c0,0.162,0.013,0.314,0.017,0.475c0,0.035-0.005,0.069-0.003,0.104
				c0.754,51.15,21.248,99.119,57.701,135.071c36.493,35.988,84.816,55.808,136.07,55.808s99.579-19.82,136.071-55.808
				c36.454-35.952,56.947-83.922,57.701-135.071c0-0.037-0.005-0.074-0.003-0.112c0.003-0.157,0.016-0.307,0.016-0.467
				c0-16.096-18.837-26.255-62.985-33.967c-19.422-3.394-42.356-5.937-67.33-7.534c-0.352-1.172-0.708-2.359-1.06-3.537
				c14.839-15.245,24.004-36.039,24.004-58.945c0-4.464,0-18.049-17.506-70.072c-2.078-6.175-5.026-11.87-8.664-16.987
				c7.575-15.469,15.001-27.348,22.081-35.298C340.772,89.392,346.097,90.793,347.625,91.338z M192.894,78.72
				c-9.136-10.255-23.39-13.914-36.319-9.317c-12.898,4.586-21.625,16.391-22.234,30.074c-1.694,38.115-8.96,65.82-19.439,74.111
				c-2.679,2.118-5.354,2.733-8.951,2.05c-13.548-2.572-25.291-22.416-27.925-47.184c-3.715-34.942,9.932-79.716,59.381-100.594
				c14.388-6.075,27.396-6.076,39.763-0.001c29.146,14.315,46.766,57.449,53.558,77.383c-5.526,1.777-10.757,4.28-15.57,7.409
				C207.739,98.397,200.268,87,192.894,78.72z M136.098,308.079c15.264-2.331,32.58-4.168,51.141-5.466
				c-3.643,11.983-7.227,23.653-10.757,35.024c-14.509-1.213-28.108-2.77-40.384-4.644c-29.363-4.484-42.894-9.437-48.864-12.457
				C93.209,317.516,106.75,312.562,136.098,308.079z M372.23,308.079c29.352,4.482,42.891,9.437,48.865,12.457
				c-5.971,3.019-19.502,7.973-48.865,12.457c-11.258,1.719-23.647,3.165-36.811,4.329c-3.471-11.182-6.993-22.652-10.573-34.425
				C341.98,304.174,358.007,305.908,372.23,308.079z M384.162,354.636c15.969-2.756,28.646-5.822,38.353-9.365
				c-1.918,11.868-5.085,23.332-9.345,34.264c-0.503,0.897-0.885,1.859-1.14,2.855c-25.549,62.209-86.974,106.33-157.866,106.33
				c-70.373,0-131.414-43.478-157.298-104.968c-0.268-1.868-0.988-3.656-2.09-5.188c-4.07-10.638-7.102-21.777-8.964-33.293
				c9.707,3.543,22.383,6.609,38.352,9.365c34.949,6.033,81.115,9.355,129.999,9.355
				C303.046,363.991,349.214,360.669,384.162,354.636z M200.349,339.273c4.84-15.643,9.781-31.842,14.844-48.659
				c12.109,6.699,26.017,10.526,40.807,10.526c14.79-0.001,28.699-3.827,40.807-10.527c5.042,16.746,9.961,32.876,14.781,48.455
				c-18.338,1.078-37.711,1.645-57.423,1.645C235.74,340.713,217.613,340.217,200.349,339.273z M317.3,216.558
				c0,33.802-27.499,61.301-61.3,61.301c-33.802,0-61.302-27.499-61.302-61.301c0-4.281,1.586-18.955,16.289-62.647
				c5.743-17.063,21.722-28.528,39.763-28.528h10.498c18.041,0,34.021,11.465,39.763,28.528
				C315.714,197.604,317.3,212.279,317.3,216.558z M319.105,78.72c-7.376,8.281-14.848,19.678-22.265,33.929
				c-4.832-3.142-10.084-5.65-15.636-7.428c7.946-23.443,26.452-63.991,53.59-77.346c12.38-6.09,25.394-6.097,39.796-0.015
				c49.448,20.878,63.096,65.652,59.381,100.594c-2.634,24.768-14.378,44.612-27.925,47.184c-3.598,0.683-6.275,0.07-8.951-2.051
				c-10.479-8.291-17.745-35.996-19.438-74.11c-0.608-13.683-9.336-25.487-22.234-30.073
				C342.496,64.808,328.24,68.465,319.105,78.72z"/>
			<circle cx="237.956" cy="163.79" r="11.639"/>
			<circle cx="274.039" cy="163.79" r="11.639"/>
			<path d="M261.775,186.562h-11.552c-10.527,0-19.954,5.443-25.216,14.56c-5.262,9.116-5.262,20,0.001,29.115l5.776,10.004
				c5.262,9.116,14.689,14.559,25.216,14.559c10.526,0,19.952-5.443,25.215-14.557l5.777-10.004c0-0.001,0-0.001,0-0.001
				c5.262-9.115,5.262-20,0-29.116S272.302,186.562,261.775,186.562z M266.831,218.595l-5.777,10.005
				c-1.521,2.635-4.042,2.919-5.055,2.919c-1.014,0-3.535-0.284-5.056-2.919l-5.776-10.005c-1.521-2.634-0.507-4.958-0.001-5.836
				c0.508-0.878,2.014-2.919,5.056-2.919h11.552c3.041,0,4.549,2.042,5.056,2.919C267.337,213.637,268.352,215.963,266.831,218.595z
				"/>
			<path d="M230.21,392.811c0,0.012,0,0.012,0,0.012c-6.437-0.151-11.768,4.935-11.906,11.361
				c-0.152,6.435,4.947,11.756,11.372,11.906c0.081,0,0.175,0,0.268,0c6.309,0.012,11.487-5.028,11.627-11.372
				C241.722,398.293,236.635,392.963,230.21,392.811z"/>
			<path d="M375.959,408.336c0.595,0,1.188-0.047,1.793-0.14c6.355-0.975,10.708-6.923,9.731-13.279
				c-0.989-6.342-6.925-10.707-13.281-9.719c-6.355,0.978-10.708,6.926-9.731,13.269
				C365.357,404.216,370.315,408.336,375.959,408.336z"/>
			<path d="M182.069,390.507c-6.413-0.49-12,4.318-12.478,10.732c-0.489,6.413,4.318,12,10.732,12.478
				c0.291,0.024,0.595,0.035,0.886,0.035c6.029,0,11.138-4.656,11.593-10.766C193.29,396.571,188.483,390.984,182.069,390.507z"/>
			<path d="M327.468,413.727c0.291,0,0.595-0.012,0.886-0.034c6.413-0.489,11.22-6.077,10.732-12.489
				c-0.489-6.412-6.076-11.21-12.49-10.721c-6.402,0.477-11.209,6.076-10.72,12.477
				C316.331,409.072,321.439,413.727,327.468,413.727z"/>
			<path d="M278.735,416.09c0.08,0,0.173-0.012,0.267-0.012c6.437-0.151,11.523-5.482,11.373-11.907
				c-0.153-6.425-5.482-11.511-11.907-11.36s-11.523,5.482-11.36,11.907C267.247,411.049,272.426,416.09,278.735,416.09z"/>
			<path d="M134.464,385.246c-6.355-0.978-12.292,3.387-13.269,9.742c-0.977,6.355,3.387,12.291,9.742,13.269
				c0.594,0.092,1.199,0.138,1.781,0.138c5.645,0,10.602-4.12,11.488-9.881C145.184,392.159,140.819,386.223,134.464,385.246z"/>
		</g>
	</g>
</g>
<g>
</g>
<g>
</g>
<g>
</g>
<g>
</g>
<g>
</g>
<g>
</g>
<g>
</g>
<g>
</g>
<g>
</g>
<g>
</g>
<g>
</g>
<g>
</g>
<g>
</g>
<g>
</g>
<g>
</g>
</svg>
