<?xml version="1.0" encoding="iso-8859-1"?>
<!-- Generator: Adobe Illustrator 19.0.0, SVG Export Plug-In . SVG Version: 6.00 Build 0)  -->
<svg version="1.1" id="Layer_1" xmlns="http://www.w3.org/2000/svg" xmlns:xlink="http://www.w3.org/1999/xlink" x="0px" y="0px"
	 viewBox="0 0 512 512" style="enable-background:new 0 0 512 512;" xml:space="preserve">
<g>
	<g>
		<g>
			<path d="M399.007,115.678c6.122,0,11.086-4.964,11.086-11.086V65.792c0-6.122-4.964-11.086-11.086-11.086
				s-11.086,4.964-11.086,11.086v38.801C387.921,110.714,392.886,115.678,399.007,115.678z"/>
			<path d="M432.265,122.679c1.746,1.008,3.652,1.488,5.532,1.488c3.831,0,7.557-1.989,9.612-5.545l19.4-33.603
				c3.062-5.302,1.245-12.081-4.057-15.143c-5.305-3.062-12.08-1.244-15.143,4.057l-19.4,33.603
				C425.146,112.838,426.963,119.617,432.265,122.679z"/>
			<path d="M350.606,118.622c2.054,3.556,5.779,5.545,9.612,5.545c1.88,0,3.787-0.48,5.532-1.488
				c5.302-3.062,7.119-9.841,4.057-15.143l-19.4-33.603c-3.061-5.301-9.841-7.118-15.143-4.057
				c-5.302,3.062-7.119,9.841-4.057,15.143L350.606,118.622z"/>
			<path d="M488.249,437.17H256.007c-26.614,0-39.648-5.973-53.446-12.295c-12.864-5.894-27.24-12.478-51.878-13.988v-60.911h82.036
				c24.451,0,44.344-19.893,44.344-44.344V240.78c0-12.226,9.946-22.172,22.172-22.172c12.226,0,22.172,9.946,22.172,22.172v64.853
				c0,24.451,19.893,44.344,44.344,44.344s44.344-19.893,44.344-44.344V150.429c0-6.122-4.964-11.086-11.086-11.086
				s-11.086,4.964-11.086,11.086v155.203c0,12.226-9.946,22.172-22.172,22.172s-22.172-9.946-22.172-22.172V240.78
				c0-24.451-19.893-44.344-44.344-44.344s-44.344,19.893-44.344,44.344v64.853c0,12.226-9.946,22.172-22.172,22.172h-26.606
				V139.343h15.855c4.137,0,7.931-2.304,9.838-5.976c1.908-3.673,1.611-8.1-0.768-11.485L148.666,4.71
				c-2.075-2.953-5.46-4.71-9.069-4.71c-3.61,0-6.994,1.757-9.069,4.71l-82.37,117.17c-2.379,3.386-2.676,7.813-0.768,11.485
				c1.907,3.673,5.7,5.976,9.838,5.976h15.855v199.547c0,6.122,4.964,11.086,11.086,11.086h44.344v60.946
				c-24.295,1.575-38.549,8.104-51.316,13.954c-13.799,6.322-26.832,12.295-53.446,12.295c-6.122,0-11.086,4.964-11.086,11.086
				v52.658c0,6.122,4.964,11.086,11.086,11.086h464.5c6.122,0,11.086-4.964,11.086-11.086v-52.658
				C499.335,442.133,494.372,437.17,488.249,437.17z M78.571,117.172l61.026-86.809l61.026,86.809H78.571z M95.253,327.803
				c0,0,0-188.461,0-188.461h88.687v17.168h-32.149c-6.122,0-11.086,4.964-11.086,11.086s4.964,11.086,11.086,11.086h32.149v22.172
				h-32.149c-6.122,0-11.086,4.964-11.086,11.086s4.964,11.086,11.086,11.086h32.149v22.172h-32.149
				c-6.122,0-11.086,4.964-11.086,11.086s4.964,11.086,11.086,11.086h32.149v22.172h-32.149c-6.122,0-11.086,4.964-11.086,11.086
				s4.964,11.086,11.086,11.086h32.149v16.09H95.253z M34.835,489.828v-30.824c24.468-1.543,38.781-8.102,51.597-13.973
				c13.799-6.322,26.832-12.295,53.445-12.295c26.614,0,39.648,5.973,53.446,12.295c14.639,6.708,31.232,14.311,62.683,14.311
				h221.156v30.486H34.835z"/>
		</g>
	</g>
</g>
<g>
</g>
<g>
</g>
<g>
</g>
<g>
</g>
<g>
</g>
<g>
</g>
<g>
</g>
<g>
</g>
<g>
</g>
<g>
</g>
<g>
</g>
<g>
</g>
<g>
</g>
<g>
</g>
<g>
</g>
</svg>
