<?xml version="1.0" encoding="iso-8859-1"?>
<!-- Generator: Adobe Illustrator 19.0.0, SVG Export Plug-In . SVG Version: 6.00 Build 0)  -->
<svg version="1.1" id="Layer_1" xmlns="http://www.w3.org/2000/svg" xmlns:xlink="http://www.w3.org/1999/xlink" x="0px" y="0px"
	 viewBox="0 0 512 512" style="enable-background:new 0 0 512 512;" xml:space="preserve">
<g>
	<g>
		<g>
			<path d="M221.14,327.968h69.719c3.891,0,7.488-2.076,9.434-5.447c1.946-3.37,1.946-7.523,0-10.894l-34.86-60.379
				c-1.946-3.37-5.543-5.447-9.434-5.447c-3.891,0-7.488,2.076-9.434,5.447l-34.86,60.379c-1.946,3.37-1.946,7.523,0,10.894
				C213.652,325.891,217.249,327.968,221.14,327.968z M256,278.482l15.992,27.698h-31.984L256,278.482z"/>
			<path d="M209.582,275.017c1.57-4.286,0.302-9.094-3.175-12.048l-82.065-69.719c-2.793-2.375-6.592-3.182-10.117-2.153
				c-3.519,1.032-6.283,3.765-7.354,7.271l-21.362,69.94c-1.011,3.306-0.39,6.897,1.669,9.672c2.056,2.77,5.3,4.403,8.749,4.403
				c0.008,0,0.016,0,0.023,0l103.427-0.221C203.939,282.154,208.012,279.301,209.582,275.017z M110.653,260.565l12.213-39.983
				l46.913,39.857L110.653,260.565z"/>
			<path d="M405.129,198.368c-1.071-3.508-3.836-6.241-7.354-7.271c-3.524-1.033-7.324-0.223-10.117,2.153l-82.065,69.719
				c-3.477,2.954-4.745,7.763-3.176,12.048c1.569,4.284,5.643,7.138,10.205,7.147l103.427,0.221c0.008,0,0.016,0,0.023,0
				c3.449,0,6.694-1.633,8.749-4.403c2.06-2.777,2.68-6.366,1.669-9.672L405.129,198.368z M342.22,260.44l46.913-39.857
				l12.213,39.983L342.22,260.44z"/>
			<path d="M387.54,349.754H230.4c-6.016,0-10.894,4.877-10.894,10.894v0.677h-21.787v-0.677c0-2.889-1.148-5.66-3.191-7.703
				c-2.044-2.043-4.814-3.191-7.703-3.191H124.46c-6.015,0-10.894,4.877-10.894,10.894c0,36.641,29.809,66.451,66.451,66.451h102.31
				c6.015,0,10.894-4.877,10.894-10.894v-8.765h21.787v8.765c0,6.017,4.878,10.894,10.894,10.894h6.082
				c36.642,0,66.451-29.809,66.451-66.451C398.434,354.632,393.556,349.754,387.54,349.754z M336.795,405.054v-8.508
				c0-6.017-4.878-10.894-10.894-10.894h-43.574c-6.015,0-10.894,4.877-10.894,10.894v8.765h-91.416
				c-20.871,0-38.445-14.39-43.321-33.77h39.236v0.677c0,6.017,4.878,10.894,10.894,10.894H230.4
				c6.015,0,10.894-4.877,10.894-10.894v-0.677h134.01C370.808,389.413,355.515,403.041,336.795,405.054z"/>
			<path d="M324.085,105.506h-31.56c-0.854-7.842-1.947-13.99-3.015-19.993c-2.009-11.289-3.906-21.952-4.084-44.043
				c-0.049-5.982-4.912-10.805-10.894-10.805H256c-15.795,0-28.981,12.332-30.018,28.074c-0.747,11.345-2.081,18.839-3.492,26.775
				c-1.068,6.002-2.16,12.15-3.015,19.992h-31.559C84.298,105.506,0,189.804,0,293.421s84.298,187.915,187.915,187.915h136.17
				C427.702,481.336,512,397.037,512,293.421S427.702,105.506,324.085,105.506z M243.939,89.331
				c1.453-8.169,2.957-16.615,3.783-29.16c0.285-4.329,3.922-7.719,8.278-7.719h7.88c0.65,17.046,2.439,27.102,4.18,36.879
				c1.534,8.62,2.983,16.763,3.745,29.977c0.147,2.536-1.096,4.253-1.849,5.051c-1.321,1.4-3.108,2.17-5.032,2.17h-17.851
				c-1.925,0-3.71-0.771-5.032-2.17c-0.753-0.8-1.996-2.516-1.849-5.052C240.956,106.094,242.405,97.951,243.939,89.331z
				 M324.085,459.548h-136.17c-91.603,0-166.128-74.525-166.128-166.128s74.524-166.128,166.128-166.128h29.6
				c-15.914,5.222-38.888,16.644-50.333,40.712c-2.583,5.434-0.273,11.933,5.16,14.516c1.51,0.719,3.103,1.059,4.67,1.059
				c4.073,0,7.98-2.295,9.846-6.218c10.851-22.82,38.498-30.193,47.498-32.028c3.924,1.937,8.279,2.983,12.716,2.983h17.851
				c4.313,0,8.545-0.992,12.382-2.826c9.711,2.083,36.185,9.665,46.745,31.871c1.866,3.924,5.773,6.218,9.846,6.218
				c1.568,0,3.16-0.341,4.67-1.059c5.434-2.584,7.743-9.082,5.16-14.516c-11.44-24.059-34.406-35.487-50.319-40.712h30.676
				c91.603,0,166.128,74.524,166.128,166.128S415.688,459.548,324.085,459.548z"/>
		</g>
	</g>
</g>
<g>
</g>
<g>
</g>
<g>
</g>
<g>
</g>
<g>
</g>
<g>
</g>
<g>
</g>
<g>
</g>
<g>
</g>
<g>
</g>
<g>
</g>
<g>
</g>
<g>
</g>
<g>
</g>
<g>
</g>
</svg>
