<?xml version="1.0" encoding="iso-8859-1"?>
<!-- Generator: Adobe Illustrator 19.0.0, SVG Export Plug-In . SVG Version: 6.00 Build 0)  -->
<svg version="1.1" id="Layer_1" xmlns="http://www.w3.org/2000/svg" xmlns:xlink="http://www.w3.org/1999/xlink" x="0px" y="0px"
	 viewBox="0 0 511.999 511.999" style="enable-background:new 0 0 511.999 511.999;" xml:space="preserve">
<g>
	<g>
		<g>
			<path d="M504.259,150.876c-46.725-13.778-82.607-4.427-104.479,5.843c-15.912,7.471-26.917,16.487-32.667,21.878
				c-10.492-9.603-23.04-16.692-36.78-20.72l74.968-64.093l33.688,13.605c1.325,0.535,2.692,0.788,4.038,0.788
				c4.269,0,8.312-2.551,10.008-6.753c2.231-5.526-0.439-11.814-5.964-14.046l-23.281-9.403l29.129-24.904
				c4.53-3.873,5.062-10.683,1.19-15.213c-3.873-4.53-10.683-5.063-15.213-1.19l-52.731,45.082l-5.178-28.049
				c-1.082-5.861-6.717-9.735-12.57-8.653c-5.86,1.082-9.734,6.709-8.653,12.57l7.446,40.335l-12.97,11.089l-47.008-17.46
				c-5.582-2.075-11.798,0.77-13.871,6.359c-2.075,5.586,0.771,11.797,6.359,13.872l35.749,13.278l-33.849,28.939h-91.24
				l-33.849-28.939l35.749-13.278c5.587-2.075,8.433-8.286,6.359-13.872c-2.074-5.586-8.289-8.431-13.871-6.359l-47.008,17.46
				l-12.97-11.089l7.446-40.335c1.082-5.86-2.792-11.487-8.653-12.57c-5.863-1.081-11.487,2.791-12.57,8.653l-5.178,28.049
				L73.104,36.67c-4.529-3.872-11.342-3.34-15.213,1.19c-3.873,4.53-3.341,11.341,1.19,15.213L88.21,77.977l-23.281,9.403
				c-5.525,2.231-8.196,8.52-5.964,14.046c1.696,4.202,5.739,6.753,10.008,6.753c1.346,0,2.714-0.253,4.038-0.788l33.688-13.605
				l74.968,64.093c-13.739,4.029-26.287,11.117-36.78,20.72c-5.75-5.391-16.755-14.407-32.667-21.878
				c-21.873-10.27-57.755-19.621-104.479-5.843c-5.459,1.61-8.728,7.18-7.473,12.73c0.229,1.009,5.78,24.975,22.818,49.673
				c22.532,32.662,54.588,51.313,92.802,54.061c2.844,13.963,8.888,27.379,18.039,39.214c4.419,5.716,9.168,11.42,14.119,16.957
				c20.907,23.382,32.421,53.31,32.421,84.271c0,37.362,35.295,70.136,75.531,70.136s75.531-32.774,75.531-70.136
				c0-30.96,11.514-60.888,32.422-84.272c4.951-5.538,9.7-11.242,14.118-16.956c9.151-11.836,15.195-25.252,18.039-39.215
				c38.216-2.748,70.271-21.399,92.802-54.061c17.038-24.697,22.59-48.664,22.818-49.673
				C512.987,158.056,509.718,152.486,504.259,150.876z M123.783,206.824c-6.076,12.377-9.286,25.549-9.726,38.705
				c-30.097-3.053-54.575-17.807-72.806-43.926c-8.572-12.281-13.87-24.543-16.828-32.768c27.919-6.218,54.023-3.875,77.732,7.003
				c14.596,6.698,24.311,14.993,28.577,19.077C128.163,198.671,125.834,202.644,123.783,206.824z M361,293.356
				c-4.106,5.31-8.523,10.617-13.133,15.772c-24.451,27.343-37.916,62.379-37.916,98.655c0,25.412-25.715,48.556-53.951,48.556
				s-53.951-23.144-53.951-48.556c0-36.275-13.465-71.311-37.915-98.655c-4.608-5.154-9.027-10.461-13.134-15.773
				c-17.486-22.615-20.418-51.409-7.846-77.022c12.516-25.497,36.964-40.72,65.398-40.72h94.89c28.435,0,52.884,15.223,65.398,40.72
				C381.417,241.947,378.485,270.741,361,293.356z M397.943,245.528c-0.44-13.155-3.65-26.327-9.726-38.703
				c-2.051-4.18-4.38-8.152-6.948-11.909c4.265-4.084,13.981-12.38,28.577-19.077c23.709-10.879,49.813-13.221,77.732-7.003
				C479.811,190.346,455.853,239.57,397.943,245.528z"/>
			<path d="M255.872,366.78h-0.434c-8.79,0-16.976,3.497-23.052,9.847c-6.055,6.33-9.307,15.005-8.918,23.802
				c0.104,2.356,0.158,4.742,0.162,7.092c0.025,15.785,17.984,26.477,30.848,27.193c0.513,0.028,1.028,0.043,1.549,0.043
				c8.511,0,17.917-3.782,24.369-9.883c5.144-4.865,7.976-10.935,7.976-17.093c0-2.38,0.052-4.788,0.155-7.158
				c0.381-8.866-2.808-17.297-8.977-23.739C273.396,370.464,264.766,366.78,255.872,366.78z M266.79,407.652
				c-0.65,1.893-6.567,5.782-11.112,5.516c-4.197-0.234-9.717-3.937-10.469-5.887c-0.008-2.589-0.069-5.214-0.183-7.805
				c0,0,0,0,0-0.001c-0.132-2.987,0.916-5.803,2.951-7.931c1.965-2.054,4.614-3.186,7.459-3.186h0.434
				c3.085,0,5.958,1.227,8.093,3.454c2.061,2.152,3.126,4.951,3.001,7.88C266.851,402.328,266.792,405.005,266.79,407.652z"/>
			<circle cx="203.665" cy="254.023" r="10.79"/>
			<circle cx="306.712" cy="254.023" r="10.79"/>
			<path d="M256,298.262c-22.124,0-41.451,7.441-50.438,19.421c-3.576,4.766-2.611,11.53,2.156,15.106
				c4.766,3.576,11.53,2.611,15.106-2.156c4.024-5.363,16.711-10.791,33.176-10.791s29.153,5.429,33.176,10.791
				c2.12,2.826,5.359,4.316,8.64,4.316c2.253,0,4.525-0.703,6.467-2.159c4.767-3.576,5.733-10.34,2.156-15.106
				C297.451,305.703,278.124,298.262,256,298.262z"/>
		</g>
	</g>
</g>
<g>
</g>
<g>
</g>
<g>
</g>
<g>
</g>
<g>
</g>
<g>
</g>
<g>
</g>
<g>
</g>
<g>
</g>
<g>
</g>
<g>
</g>
<g>
</g>
<g>
</g>
<g>
</g>
<g>
</g>
</svg>
