<?xml version="1.0" encoding="iso-8859-1"?>
<!-- Generator: Adobe Illustrator 19.0.0, SVG Export Plug-In . SVG Version: 6.00 Build 0)  -->
<svg version="1.1" id="Layer_1" xmlns="http://www.w3.org/2000/svg" xmlns:xlink="http://www.w3.org/1999/xlink" x="0px" y="0px"
	 viewBox="0 0 512 512" style="enable-background:new 0 0 512 512;" xml:space="preserve">
<g>
	<g>
		<g>
			<path d="M89.387,311.522c0.025,0,0.051,0,0.076,0c5.891-0.042,10.634-4.85,10.592-10.741
				c-0.18-25.784,9.719-50.054,27.876-68.338c18.159-18.287,42.352-28.357,68.122-28.357c5.891,0,10.667-4.777,10.667-10.667
				s-4.775-10.668-10.667-10.668c-31.495,0-61.065,12.308-83.259,34.658c-22.192,22.348-34.292,52.01-34.071,83.521
				C78.763,306.796,83.531,311.522,89.387,311.522z"/>
			<path d="M306.063,272.465c10.256,0,19.898-3.994,27.151-11.247c3.93-3.931,6.892-8.523,8.809-13.659l1.792-4.813
				c3.47-9.327,7.059-18.971,11-28.623c2.227-5.454-0.388-11.68-5.843-13.907c-5.454-2.229-11.68,0.388-13.907,5.843
				c-4.068,9.963-7.716,19.766-11.243,29.244l-1.789,4.803c-0.838,2.245-2.153,4.274-3.906,6.027
				c-3.222,3.222-7.508,4.998-12.066,4.998c-4.658,0-9.017-1.847-12.271-5.203c-4.102-4.228-10.855-4.331-15.084-0.229
				c-4.226,4.102-4.329,10.857-0.227,15.084C285.787,268.317,295.583,272.465,306.063,272.465z"/>
			<path d="M510.61,380.156c-1.896-3.338-5.438-5.402-9.277-5.402h-55.425l2.183-6.465c9.518-28.174,3.216-59.522-16.447-81.812
				c-12.736-14.438-27.238-29.167-42.43-43.263c10.443-27.338,22.256-54.217,41.579-73.539l4.707-4.707l31.567-13.212
				c10.61-4.441,18.271-13.829,20.494-25.114c2.223-11.283-1.306-22.876-9.438-31.008l-0.005-0.011
				c-6.314-6.314-14.646-9.874-23.542-10.078c-0.204-8.896-3.765-17.228-10.078-23.541c-8.133-8.131-19.724-11.662-31.008-9.438
				c-11.284,2.222-20.672,9.884-25.114,20.494l-13.207,31.558l-2.107,2.107c-23.83,23.831-58.284,37.1-91.603,49.933l-4.667,1.799
				c-1.333,0.515-2.645,1.069-3.942,1.649c-27.856-13.299-53.551-20.02-76.797-20.02c-42.949,0-83.269,16.784-113.534,47.262
				c-30.262,30.474-46.763,70.918-46.463,113.883c0.186,26.532,6.9,51.534,18.573,73.523H10.667c-3.839,0-7.381,2.064-9.277,5.402
				c-1.896,3.339-1.85,7.439,0.118,10.734l15.833,26.508c11.442,25.961,37.06,42.689,65.477,42.689H429.18
				c28.418,0,54.036-16.731,65.478-42.69l15.831-26.507C512.459,387.594,512.505,383.493,510.61,380.156z M408.054,81.297
				c1.716-4.098,5.2-6.941,9.558-7.799c4.358-0.862,8.659,0.45,11.801,3.591c2.476,2.475,3.839,5.766,3.839,9.267
				c0,3.501-1.363,6.793-3.84,9.267c-2.083,2.083-3.124,4.813-3.124,7.542s1.041,5.459,3.124,7.542
				c4.165,4.164,10.919,4.164,15.086,0c2.476-2.476,5.766-3.84,9.267-3.84c3.501,0,6.792,1.363,9.267,3.84l0.007,0.007
				c3.141,3.14,4.45,7.442,3.593,11.801c-0.859,4.358-3.701,7.842-7.8,9.557l-27.172,11.373l-34.977-34.977L408.054,81.297z
				 M284.476,178.357l4.65-1.793c32.017-12.33,68.088-26.222,94.784-50.698l30.274,30.274
				c-25.021,25.911-38.476,62.07-50.374,94.047l-1.803,4.839c-2.991,8.013-7.603,15.172-13.708,21.276
				c-11.293,11.294-26.273,17.495-42.227,17.495c-0.156,0-0.314,0-0.47-0.002c-16.125-0.123-31.196-6.572-42.436-18.16
				c-21.964-22.645-22.195-59.702-0.515-82.603C268.838,186.498,276.182,181.561,284.476,178.357z M97.656,202.379
				c26.229-26.414,61.174-40.96,98.397-40.96c17.707,0,36.548,4.714,55.614,12.573c-1.543,1.402-3.058,2.845-4.509,4.377
				c-14.358,15.168-22.193,35.127-22.062,56.199c0.132,21.07,8.213,40.93,22.755,55.923c15.25,15.724,35.702,24.475,57.587,24.642
				c0.213,0.001,0.424,0.002,0.638,0.002c21.65,0,41.981-8.418,57.308-23.744c7.695-7.696,13.621-16.652,17.689-26.622
				c13.335,12.749,25.084,25.06,34.575,35.82c14.628,16.583,19.316,39.908,12.234,60.87v0.001l-4.491,13.293H79.301
				c-13.691-21.308-21.723-46.576-21.911-73.675C57.129,263.842,71.43,228.789,97.656,202.379z M475.347,408.31
				c-7.925,18.492-26.046,30.441-46.165,30.441H82.82c-20.118,0-38.24-11.949-46.165-30.441c-0.187-0.436-7.191-12.226-7.191-12.226
				h453.076C482.538,396.084,475.533,407.874,475.347,408.31z"/>
		</g>
	</g>
</g>
<g>
</g>
<g>
</g>
<g>
</g>
<g>
</g>
<g>
</g>
<g>
</g>
<g>
</g>
<g>
</g>
<g>
</g>
<g>
</g>
<g>
</g>
<g>
</g>
<g>
</g>
<g>
</g>
<g>
</g>
</svg>
