<?xml version="1.0" encoding="iso-8859-1"?>
<!-- Generator: Adobe Illustrator 19.0.0, SVG Export Plug-In . SVG Version: 6.00 Build 0)  -->
<svg version="1.1" id="Layer_1" xmlns="http://www.w3.org/2000/svg" xmlns:xlink="http://www.w3.org/1999/xlink" x="0px" y="0px"
	 viewBox="0 0 512 512" style="enable-background:new 0 0 512 512;" xml:space="preserve">
<g>
	<g>
		<g>
			<path d="M186.502,113.74c-0.302-0.023-0.601-0.06-0.907-0.06h-1.001c6.461-9.064,10.277-20.137,10.277-32.091V64.085
				c0-30.564-24.867-55.43-55.43-55.43c-30.564,0-55.43,24.867-55.43,55.43V81.59c0,11.954,3.817,23.027,10.277,32.091h-1.002
				c-0.306,0-0.606,0.035-0.908,0.06c-39.676,1.237-71.577,33.877-71.577,73.847v97.538c0,26.304,20.073,48.007,45.706,50.599
				v133.973c0,23.325,18.977,42.302,42.302,42.302c12.044,0,22.921-5.068,30.632-13.175C147.153,506.931,158.03,512,170.074,512
				c23.325,0,42.302-18.977,42.302-42.302V335.725c25.633-2.592,45.706-24.295,45.706-50.599v-97.538
				C258.081,147.616,226.18,114.977,186.502,113.74z M107.349,64.085c0-17.694,14.396-32.091,32.091-32.091
				c17.696,0,32.091,14.397,32.091,32.091V81.59c0,17.695-14.396,32.091-32.091,32.091c-17.696,0-32.091-14.397-32.091-32.091
				V64.085z M166.249,137.02l-26.808,50.836l-26.808-50.836H166.249z M212.375,312.155v-89.559c0-6.444-5.224-11.669-11.67-11.669
				s-11.669,5.226-11.669,11.669v247.102c0,10.456-8.507,18.963-18.963,18.963c-10.456,0-18.963-8.507-18.963-18.963V328.789
				c0-6.444-5.224-11.669-11.67-11.669s-11.669,5.226-11.669,11.669v140.909c0,10.456-8.507,18.963-18.963,18.963
				s-18.963-8.507-18.963-18.963V222.596c0-6.444-5.224-11.669-11.67-11.669s-11.669,5.226-11.669,11.669v89.559
				c-12.719-2.42-22.367-13.616-22.367-27.029v-97.538c0-25.121,18.417-46.014,42.455-49.908l42.524,80.636
				c2.019,3.829,5.992,6.226,10.322,6.226c4.329,0,8.303-2.397,10.322-6.226l42.524-80.636
				c24.039,3.894,42.456,24.787,42.456,49.908v97.538h0.001C234.742,298.539,225.093,309.735,212.375,312.155z"/>
			<path d="M461.822,339.256c12.632-8.125,21.091-22.798,21.091-39.532l0.389-194.115c0-32.432-9.672-59.428-27.969-78.069
				C437.649,9.522,412.818,0,383.528,0c-29.291,0-54.12,9.522-71.805,27.54c-18.298,18.642-27.969,45.637-27.969,78.069
				l0.389,194.115c0,16.734,8.459,31.406,21.091,39.532c-33.668,69.163-38.443,125.184-14.086,166.952
				c2.091,3.586,5.93,5.792,10.081,5.792h164.599c4.151,0,7.99-2.206,10.081-5.792C500.265,464.44,495.49,408.419,461.822,339.256z
				 M307.093,105.609c0-51.515,28.574-82.27,76.435-82.27c47.861,0,76.435,30.755,76.435,82.27v55.436
				c-8.866-7.744-19.753-12.969-31.689-14.607c6.71-9.168,10.683-20.457,10.683-32.662v-8.169c0-30.564-24.867-55.43-55.43-55.43
				s-55.43,24.867-55.43,55.43v8.169c0,12.204,3.973,23.494,10.683,32.661c-11.936,1.637-22.821,6.863-31.689,14.606V105.609z
				 M435.828,206.766c-2.208-2.37-5.3-3.717-8.539-3.717c-12.762,0-19.496,2.155-25.437,4.056
				c-5.143,1.645-9.205,2.945-18.323,2.945c-9.119,0-13.181-1.3-18.323-2.945c-5.941-1.901-12.675-4.056-25.437-4.056
				c-3.238,0-6.332,1.346-8.539,3.717c-2.208,2.369-3.331,5.55-3.102,8.78l5.235,73.687c-0.392,0.454-12.338,20.109-17.293,29.136
				c-5.195-4.156-8.588-10.959-8.588-18.646V212.5c0-23.871,17.659-43.292,39.365-43.292h73.363
				c21.706,0,39.365,19.42,39.365,43.292v87.225c0,7.687-3.393,14.49-8.588,18.646c-4.955-9.028-16.901-28.682-17.292-29.136
				l5.235-73.687C439.159,212.315,438.035,209.135,435.828,206.766z M414.67,227.666l-4.086,57.507h-54.112l-4.086-57.507
				c1.969,0.473,3.76,1.046,5.705,1.669c5.941,1.901,12.675,4.056,25.437,4.056c12.762,0,19.496-2.155,25.437-4.056
				C410.91,228.711,412.702,228.139,414.67,227.666z M351.437,113.778v-8.169c0-17.695,14.396-32.091,32.091-32.091
				c17.696,0,32.091,14.397,32.091,32.091v8.169c0,17.695-14.396,32.091-32.091,32.091
				C365.832,145.869,351.437,131.472,351.437,113.778z M458.821,488.661H308.235c-11.133-23.154-11.925-52.363-2.337-86.958
				c7.683-27.723,22.08-59.052,42.815-93.19h69.628c20.736,34.139,35.131,65.468,42.815,93.19
				C470.745,436.297,469.954,465.507,458.821,488.661z"/>
		</g>
	</g>
</g>
<g>
</g>
<g>
</g>
<g>
</g>
<g>
</g>
<g>
</g>
<g>
</g>
<g>
</g>
<g>
</g>
<g>
</g>
<g>
</g>
<g>
</g>
<g>
</g>
<g>
</g>
<g>
</g>
<g>
</g>
</svg>
