<?xml version="1.0" encoding="iso-8859-1"?>
<!-- Generator: Adobe Illustrator 19.0.0, SVG Export Plug-In . SVG Version: 6.00 Build 0)  -->
<svg version="1.1" id="Layer_1" xmlns="http://www.w3.org/2000/svg" xmlns:xlink="http://www.w3.org/1999/xlink" x="0px" y="0px"
	 viewBox="0 0 512.001 512.001" style="enable-background:new 0 0 512.001 512.001;" xml:space="preserve">
<g>
	<g>
		<path d="M511.174,430.569c-1.661-3.967-5.541-6.55-9.841-6.55h-58.644V309.873c0-5.891-4.776-10.668-10.668-10.668h-42.671
			V189.326c0-5.891-4.776-10.668-10.668-10.668H336.01V98.65c0-5.891-4.776-10.668-10.668-10.668h-36.899
			c10.588-10.347,20.143-24.179,20.143-40.407c0-18.896-15.372-34.268-34.268-34.268c-6.587,0-12.907,1.867-18.317,5.296
			c-5.41-3.429-11.729-5.296-18.317-5.296c-18.895,0-34.268,15.372-34.268,34.268c0,16.228,9.555,30.059,20.143,40.407H186.66
			c-5.892,0-10.668,4.777-10.668,10.668v80.009h-42.671c-5.892,0-10.668,4.777-10.668,10.668v109.879H79.981
			c-5.892,0-10.668,4.777-10.668,10.668v114.146H10.668c-4.3,0-8.18,2.583-9.841,6.55c-1.66,3.967-0.776,8.544,2.243,11.607
			l52.571,53.339c2.004,2.034,4.742,3.179,7.598,3.179h385.522c2.856,0,5.593-1.145,7.598-3.179l52.571-53.339
			C511.949,439.113,512.833,434.536,511.174,430.569z M237.684,34.644c3.908,0,7.567,1.744,10.04,4.785
			c2.026,2.492,5.066,3.938,8.277,3.938c3.211,0,6.251-1.445,8.277-3.938c2.473-3.041,6.132-4.785,10.04-4.785
			c7.131,0,12.933,5.801,12.933,12.933c0,15.784-19.429,31.303-31.248,38.729c-11.827-7.432-31.249-22.948-31.249-38.729
			C224.751,40.445,230.553,34.644,237.684,34.644z M197.328,109.318h117.346v69.341H197.328V109.318z M143.988,199.996h42.671
			v-0.001h138.682h42.671v26.683c-13.984,1.96-22.248,8.983-29.069,14.812c-6.959,5.947-11.987,10.244-23.03,10.244
			s-16.071-4.296-23.03-10.244c-8.007-6.842-17.973-15.358-36.892-15.358c-18.915,0-28.88,8.516-36.887,15.36
			c-6.958,5.946-11.985,10.243-23.025,10.243c-11.041,0-16.069-4.296-23.027-10.243c-6.82-5.829-15.082-12.853-29.066-14.812
			V199.996z M143.988,248.376c6.085,1.559,10.138,5.004,15.203,9.333c8.007,6.843,17.972,15.36,36.888,15.36
			c18.916,0,28.881-8.516,36.888-15.36c6.958-5.946,11.984-10.243,23.025-10.243c11.043,0,16.071,4.296,23.03,10.244
			c8.007,6.842,17.973,15.358,36.892,15.358c18.917,0,28.883-8.516,36.892-15.358c5.067-4.33,9.12-7.776,15.207-9.334v50.83H143.988
			V248.376z M90.648,320.542h42.672h245.36h42.671v28.894c-13.443,2.067-21.422,9.034-28.021,14.828
			c-6.712,5.892-11.561,10.151-22.123,10.151c-10.562,0-15.411-4.258-22.123-10.151c-7.842-6.885-17.601-15.452-36.2-15.452
			c-18.598,0-28.356,8.568-36.197,15.452c-6.711,5.892-11.559,10.151-22.119,10.151c-10.56,0-15.409-4.258-22.12-10.151
			c-7.841-6.884-17.6-15.452-36.197-15.452s-28.355,8.568-36.196,15.452c-6.711,5.892-11.559,10.151-22.119,10.151
			c-10.559,0-15.408-4.258-22.118-10.149c-6.119-5.373-13.427-11.754-25.172-14.305V320.542z M90.648,372.291h0.001
			c4.031,1.81,7.261,4.638,11.095,8.005c7.841,6.884,17.598,15.452,36.195,15.452c18.598,0,28.356-8.568,36.196-15.453
			c6.711-5.891,11.559-10.149,22.118-10.149c10.56,0,15.409,4.258,22.12,10.151c7.841,6.884,17.6,15.452,36.197,15.452
			c18.597,0,28.356-8.568,36.196-15.452c6.711-5.892,11.559-10.151,22.119-10.151c10.562,0,15.412,4.258,22.123,10.151
			c7.842,6.885,17.601,15.452,36.199,15.452c18.599,0,28.358-8.567,36.2-15.452c4.694-4.12,8.482-7.435,13.945-9.06v52.782H90.648
			V372.291z M444.297,477.359H67.704l-31.543-32.004h43.82H432.02h43.82L444.297,477.359z"/>
	</g>
</g>
<g>
</g>
<g>
</g>
<g>
</g>
<g>
</g>
<g>
</g>
<g>
</g>
<g>
</g>
<g>
</g>
<g>
</g>
<g>
</g>
<g>
</g>
<g>
</g>
<g>
</g>
<g>
</g>
<g>
</g>
</svg>
