<?xml version="1.0" encoding="utf-8" ?>
<svg baseProfile="tiny" height="100%" version="1.2" viewBox="0 0 1920 1080" width="100%" xmlns="http://www.w3.org/2000/svg" xmlns:ev="http://www.w3.org/2001/xml-events" xmlns:xlink="http://www.w3.org/1999/xlink"><defs /><image height="277.6475" id="asax1-jonathan" width="393.0769" x="0" xlink:href="../clips/kbox/asax1-jonathan.png" y="0" /><image height="440.4782" id="asax1-regine" width="247.769" x="0" xlink:href="../clips/kbox/asax1-regine.png" y="0" /><image height="462.3925" id="asax2-dirk" width="236.0264" x="0" xlink:href="../clips/kbox/asax2-dirk.png" y="0" /><image height="250.0587" id="bar-matthias-video" width="436.445" x="0" xlink:href="../clips/kbox/bar-matthias-video.png" y="0" /><image height="429.0074" id="bsax-astrid" width="254.3939" x="0" xlink:href="../clips/kbox/bsax-astrid.png" y="0" /><image height="232.2567" id="bsn-chris" width="469.8976" x="0" xlink:href="../clips/kbox/bsn-chris.png" y="0" /><image height="318.8004" id="fl-fiendw" width="342.336" x="0" xlink:href="../clips/kbox/fl-fiendw.png" y="0" /><image height="247.769" id="fl-karolien" width="440.4782" x="0" xlink:href="../clips/kbox/fl-karolien.png" y="0" /><image height="269.7367" id="fl-marlies" width="404.6051" x="0" xlink:href="../clips/kbox/fl-marlies.png" y="0" /><image height="435.9579" id="fl-thomas" width="250.338" x="0" xlink:href="../clips/kbox/fl-thomas.png" y="0" /><image height="279.7597" id="fl-valerie-video" width="390.1093" x="0" xlink:href="../clips/kbox/fl-valerie-video.png" y="0" /><image height="284.0354" id="horn-inge" width="384.2368" x="0" xlink:href="../clips/kbox/horn-inge.png" y="0" /><image height="238.8489" id="horn-nathalie" width="456.9284" x="0" xlink:href="../clips/kbox/horn-nathalie.png" y="0" /><image height="247.769" id="mall-tineke2" width="440.4782" x="0" xlink:href="../clips/kbox/mall-tineke2.png" y="0" /><image height="374.3933" id="ob-janne" width="291.5032" x="0" xlink:href="../clips/kbox/ob-janne.png" y="0" /><image height="326.9933" id="tbn-michieldw3-video" width="333.7587" x="0" xlink:href="../clips/kbox/tbn-michieldw3-video.png" y="0" /><image height="316.1089" id="tbn-simon2-video" width="345.2508" x="0" xlink:href="../clips/kbox/tbn-simon2-video.png" y="0" /><image height="372.2139" id="tbn-steven" width="293.21" x="0" xlink:href="../clips/kbox/tbn-steven.png" y="0" /><image height="450.4998" id="tsax-koend" width="242.2572" x="0" xlink:href="../clips/kbox/tsax-koend.png" y="0" /></svg>