<?xml version="1.0" encoding="utf-8" ?>
<svg baseProfile="tiny" height="100%" version="1.2" viewBox="0 0 1920 1080" width="100%" xmlns="http://www.w3.org/2000/svg" xmlns:ev="http://www.w3.org/2001/xml-events" xmlns:xlink="http://www.w3.org/1999/xlink"><defs /><image height="224.7355" id="asax1-jonathan" width="318.1672" x="0" xlink:href="../clips/kbox/asax1-jonathan.png" y="0" /><image height="356.535" id="asax1-regine" width="200.551" x="0" xlink:href="../clips/kbox/asax1-regine.png" y="0" /><image height="374.2731" id="asax2-dirk" width="191.0462" x="0" xlink:href="../clips/kbox/asax2-dirk.png" y="0" /><image height="202.4043" id="bar-matthias-video" width="353.2704" x="0" xlink:href="../clips/kbox/bar-matthias-video.png" y="0" /><image height="347.2503" id="bsax-astrid" width="205.9133" x="0" xlink:href="../clips/kbox/bsax-astrid.png" y="0" /><image height="234.5444" id="bsn-koend" width="304.861" x="0" xlink:href="../clips/kbox/bsn-koend.png" y="0" /><image height="349.2178" id="cl1-heleenba" width="204.7531" x="0" xlink:href="../clips/kbox/cl1-heleenba.png" y="0" /><image height="351.0143" id="cl1-roland" width="203.7052" x="0" xlink:href="../clips/kbox/cl1-roland.png" y="0" /><image height="360.5638" id="cl2-fienc" width="198.3101" x="0" xlink:href="../clips/kbox/cl2-fienc.png" y="0" /><image height="308.1245" id="cl3-carolien" width="232.0603" x="0" xlink:href="../clips/kbox/cl3-carolien.png" y="0" /><image height="243.9658" id="cl3-sanderijn-video" width="293.088" x="0" xlink:href="../clips/kbox/cl3-sanderijn-video.png" y="0" /><image height="356.535" id="cl-geert" width="200.551" x="0" xlink:href="../clips/kbox/cl-geert.png" y="0" /><image height="258.0457" id="fl-fiendw" width="277.0961" x="0" xlink:href="../clips/kbox/fl-fiendw.png" y="0" /><image height="200.551" id="fl-karolien" width="356.535" x="0" xlink:href="../clips/kbox/fl-karolien.png" y="0" /><image height="218.3322" id="fl-marlies" width="327.4984" x="0" xlink:href="../clips/kbox/fl-marlies.png" y="0" /><image height="352.8762" id="fl-thomas" width="202.6304" x="0" xlink:href="../clips/kbox/fl-thomas.png" y="0" /><image height="226.4451" id="fl-valerie-video" width="315.7651" x="0" xlink:href="../clips/kbox/fl-valerie-video.png" y="0" /><image height="229.906" id="horn-inge" width="311.0117" x="0" xlink:href="../clips/kbox/horn-inge.png" y="0" /><image height="193.3308" id="horn-nathalie" width="369.8502" x="0" xlink:href="../clips/kbox/horn-nathalie.png" y="0" /><image height="303.0441" id="ob-janne" width="235.9506" x="0" xlink:href="../clips/kbox/ob-janne.png" y="0" /><image height="264.6773" id="tbn-michieldw3-video" width="270.1533" x="0" xlink:href="../clips/kbox/tbn-michieldw3-video.png" y="0" /><image height="255.8671" id="tbn-simon2-video" width="279.4554" x="0" xlink:href="../clips/kbox/tbn-simon2-video.png" y="0" /><image height="339.3889" id="tpt1-koenvh" width="210.6829" x="0" xlink:href="../clips/kbox/tpt1-koenvh.png" y="0" /><image height="309.7468" id="tpt2-brecht" width="230.8448" x="0" xlink:href="../clips/kbox/tpt2-brecht.png" y="0" /><image height="255.1182" id="tpt2-els" width="280.2757" x="0" xlink:href="../clips/kbox/tpt2-els.png" y="0" /><image height="325.889" id="tpt2-michielvh" width="219.4104" x="0" xlink:href="../clips/kbox/tpt2-michielvh.png" y="0" /><image height="317.959" id="tsax-steven" width="224.8826" x="0" xlink:href="../clips/kbox/tsax-steven.png" y="0" /><image height="187.3002" id="tuba-chris" width="381.7584" x="0" xlink:href="../clips/kbox/tuba-chris.png" y="0" /><image height="356.535" id="tuba-henk3" width="200.551" x="0" xlink:href="../clips/kbox/tuba-henk3.png" y="0" /></svg>