<?xml version="1.0" encoding="utf-8" ?>
<svg baseProfile="tiny" height="100%" version="1.2" viewBox="0 0 1920 1080" width="100%" xmlns="http://www.w3.org/2000/svg" xmlns:ev="http://www.w3.org/2001/xml-events" xmlns:xlink="http://www.w3.org/1999/xlink"><defs /><image height="242.0475" id="asax1-jonathan" width="342.6765" x="0" xlink:href="../clips/kbox/asax1-jonathan.png" y="0" /><image height="384.0" id="asax1-regine" width="216.0" x="0" xlink:href="../clips/kbox/asax1-regine.png" y="0" /><image height="403.1044" id="asax2-dirk" width="205.7631" x="0" xlink:href="../clips/kbox/asax2-dirk.png" y="0" /><image height="217.9961" id="bar-matthias-video" width="380.4839" x="0" xlink:href="../clips/kbox/bar-matthias-video.png" y="0" /><image height="374.0" id="bsax-astrid" width="221.7754" x="0" xlink:href="../clips/kbox/bsax-astrid.png" y="0" /><image height="202.4767" id="bsn-chris" width="409.6472" x="0" xlink:href="../clips/kbox/bsn-chris.png" y="0" /><image height="376.1191" id="cl1-heleenba" width="220.5259" x="0" xlink:href="../clips/kbox/cl1-heleenba.png" y="0" /><image height="378.054" id="cl1-roland" width="219.3972" x="0" xlink:href="../clips/kbox/cl1-roland.png" y="0" /><image height="388.3391" id="cl2-fienc" width="213.5865" x="0" xlink:href="../clips/kbox/cl2-fienc.png" y="0" /><image height="331.8602" id="cl3-carolien" width="249.9366" x="0" xlink:href="../clips/kbox/cl3-carolien.png" y="0" /><image height="262.7592" id="cl3-sanderijn-video" width="315.6654" x="0" xlink:href="../clips/kbox/cl3-sanderijn-video.png" y="0" /><image height="384.0" id="cl-geert" width="216.0" x="0" xlink:href="../clips/kbox/cl-geert.png" y="0" /><image height="277.9237" id="fl-fiendw" width="298.4416" x="0" xlink:href="../clips/kbox/fl-fiendw.png" y="0" /><image height="216.0" id="fl-karolien" width="384.0" x="0" xlink:href="../clips/kbox/fl-karolien.png" y="0" /><image height="235.151" id="fl-marlies" width="352.7265" x="0" xlink:href="../clips/kbox/fl-marlies.png" y="0" /><image height="380.0593" id="fl-thomas" width="218.2396" x="0" xlink:href="../clips/kbox/fl-thomas.png" y="0" /><image height="243.8888" id="fl-valerie-video" width="340.0894" x="0" xlink:href="../clips/kbox/fl-valerie-video.png" y="0" /><image height="247.6163" id="horn-inge" width="334.9698" x="0" xlink:href="../clips/kbox/horn-inge.png" y="0" /><image height="208.2237" id="horn-nathalie" width="398.3409" x="0" xlink:href="../clips/kbox/horn-nathalie.png" y="0" /><image height="216.0" id="mall-tineke2" width="384.0" x="0" xlink:href="../clips/kbox/mall-tineke2.png" y="0" /><image height="326.3885" id="ob-janne" width="254.1266" x="0" xlink:href="../clips/kbox/ob-janne.png" y="0" /><image height="285.0661" id="tbn-michieldw3-video" width="290.9641" x="0" xlink:href="../clips/kbox/tbn-michieldw3-video.png" y="0" /><image height="275.5773" id="tbn-simon2-video" width="300.9827" x="0" xlink:href="../clips/kbox/tbn-simon2-video.png" y="0" /><image height="342.4523" id="tsax-steven" width="242.206" x="0" xlink:href="../clips/kbox/tsax-steven.png" y="0" /><image height="384.0" id="tuba-henk3" width="216.0" x="0" xlink:href="../clips/kbox/tuba-henk3.png" y="0" /></svg>