<?xml version="1.0" encoding="utf-8" ?>
<svg baseProfile="tiny" height="100%" version="1.2" viewBox="0 0 1920 1080" width="100%" xmlns="http://www.w3.org/2000/svg" xmlns:ev="http://www.w3.org/2001/xml-events" xmlns:xlink="http://www.w3.org/1999/xlink"><defs /><image height="220.9581" id="asax1-jonathan" width="312.8194" x="0" xlink:href="../clips/kbox/asax1-jonathan.png" y="0" /><image height="350.5424" id="asax1-regine" width="197.1801" x="0" xlink:href="../clips/kbox/asax1-regine.png" y="0" /><image height="367.9823" id="asax2-dirk" width="187.8351" x="0" xlink:href="../clips/kbox/asax2-dirk.png" y="0" /><image height="199.0023" id="bar-matthias-video" width="347.3327" x="0" xlink:href="../clips/kbox/bar-matthias-video.png" y="0" /><image height="341.4137" id="bsax-astrid" width="202.4523" x="0" xlink:href="../clips/kbox/bsax-astrid.png" y="0" /><image height="184.8351" id="bsn-chris" width="373.955" x="0" xlink:href="../clips/kbox/bsn-chris.png" y="0" /><image height="343.3482" id="cl1-heleenba" width="201.3117" x="0" xlink:href="../clips/kbox/cl1-heleenba.png" y="0" /><image height="345.1145" id="cl1-roland" width="200.2814" x="0" xlink:href="../clips/kbox/cl1-roland.png" y="0" /><image height="354.5035" id="cl2-fienc" width="194.9769" x="0" xlink:href="../clips/kbox/cl2-fienc.png" y="0" /><image height="302.9455" id="cl3-carolien" width="228.1598" x="0" xlink:href="../clips/kbox/cl3-carolien.png" y="0" /><image height="239.8652" id="cl3-sanderijn-video" width="288.1618" x="0" xlink:href="../clips/kbox/cl3-sanderijn-video.png" y="0" /><image height="350.5424" id="cl-geert" width="197.1801" x="0" xlink:href="../clips/kbox/cl-geert.png" y="0" /><image height="253.7085" id="fl-fiendw" width="272.4387" x="0" xlink:href="../clips/kbox/fl-fiendw.png" y="0" /><image height="197.1801" id="fl-karolien" width="350.5424" x="0" xlink:href="../clips/kbox/fl-karolien.png" y="0" /><image height="214.6625" id="fl-marlies" width="321.9938" x="0" xlink:href="../clips/kbox/fl-marlies.png" y="0" /><image height="346.9451" id="fl-thomas" width="199.2246" x="0" xlink:href="../clips/kbox/fl-thomas.png" y="0" /><image height="222.639" id="fl-valerie-video" width="310.4577" x="0" xlink:href="../clips/kbox/fl-valerie-video.png" y="0" /><image height="226.0417" id="horn-inge" width="305.7842" x="0" xlink:href="../clips/kbox/horn-inge.png" y="0" /><image height="190.0813" id="horn-nathalie" width="363.6338" x="0" xlink:href="../clips/kbox/horn-nathalie.png" y="0" /><image height="197.1801" id="mall-tineke2" width="350.5424" x="0" xlink:href="../clips/kbox/mall-tineke2.png" y="0" /><image height="297.9506" id="ob-janne" width="231.9848" x="0" xlink:href="../clips/kbox/ob-janne.png" y="0" /><image height="197.1801" id="perc1-koend" width="350.5424" x="0" xlink:href="../clips/kbox/perc1-koend.png" y="0" /><image height="260.2286" id="tbn-michieldw3-video" width="265.6126" x="0" xlink:href="../clips/kbox/tbn-michieldw3-video.png" y="0" /><image height="251.5665" id="tbn-simon2-video" width="274.7583" x="0" xlink:href="../clips/kbox/tbn-simon2-video.png" y="0" /><image height="333.6845" id="tpt1-koenvh" width="207.1418" x="0" xlink:href="../clips/kbox/tpt1-koenvh.png" y="0" /><image height="304.5406" id="tpt2-brecht" width="226.9648" x="0" xlink:href="../clips/kbox/tpt2-brecht.png" y="0" /><image height="250.8302" id="tpt2-els" width="275.5649" x="0" xlink:href="../clips/kbox/tpt2-els.png" y="0" /><image height="320.4115" id="tpt2-michielvh" width="215.7226" x="0" xlink:href="../clips/kbox/tpt2-michielvh.png" y="0" /><image height="312.6148" id="tsax-steven" width="221.1028" x="0" xlink:href="../clips/kbox/tsax-steven.png" y="0" /><image height="350.5424" id="tuba-henk3" width="197.1801" x="0" xlink:href="../clips/kbox/tuba-henk3.png" y="0" /></svg>