<?xml version="1.0" encoding="utf-8" ?>
<svg baseProfile="tiny" height="100%" version="1.2" viewBox="0 0 1920 1080" width="100%" xmlns="http://www.w3.org/2000/svg" xmlns:ev="http://www.w3.org/2001/xml-events" xmlns:xlink="http://www.w3.org/1999/xlink"><defs /><image height="402.9562" id="asax1-astrid" width="223.7377" x="0" xlink:href="../clips/mbox/asax1-astrid.png" y="0" /><image height="350.5474" id="asax1-jonathan" width="257.1878" x="0" xlink:href="../clips/mbox/asax1-jonathan.png" y="0" /><image height="422.1609" id="asax1-regine" width="213.5596" x="0" xlink:href="../clips/mbox/asax1-regine.png" y="0" /><image height="377.4802" id="asax2-dirk" width="238.8378" x="0" xlink:href="../clips/mbox/asax2-dirk.png" y="0" /><image height="413.4732" id="cl1-heleenba" width="218.0468" x="0" xlink:href="../clips/mbox/cl1-heleenba.png" y="0" /><image height="348.9911" id="cl1-roland" width="258.3347" x="0" xlink:href="../clips/mbox/cl1-roland.png" y="0" /><image height="387.084" id="cl2-fienc" width="232.9121" x="0" xlink:href="../clips/mbox/cl2-fienc.png" y="0" /><image height="344.4035" id="cl3-carolien" width="261.7759" x="0" xlink:href="../clips/mbox/cl3-carolien.png" y="0" /><image height="354.697" id="cl3-sanderijn-video" width="254.1789" x="0" xlink:href="../clips/mbox/cl3-sanderijn-video.png" y="0" /><image height="371.7896" id="cl-geert" width="242.4934" x="0" xlink:href="../clips/mbox/cl-geert.png" y="0" /><image height="259.4505" id="fl-fiendw" width="347.4903" x="0" xlink:href="../clips/mbox/fl-fiendw.png" y="0" /><image height="207.142" id="fl-karolien" width="435.2401" x="0" xlink:href="../clips/mbox/fl-karolien.png" y="0" /><image height="264.0523" id="fl-marlies" width="341.4343" x="0" xlink:href="../clips/mbox/fl-marlies.png" y="0" /><image height="304.0617" id="fl-thomas" width="296.5073" x="0" xlink:href="../clips/mbox/fl-thomas.png" y="0" /><image height="254.2717" id="fl-valerie-video" width="354.5677" x="0" xlink:href="../clips/mbox/fl-valerie-video.png" y="0" /><image height="289.5972" id="horn-inge" width="311.317" x="0" xlink:href="../clips/mbox/horn-inge.png" y="0" /><image height="289.7888" id="horn-nathalie" width="311.1111" x="0" xlink:href="../clips/mbox/horn-nathalie.png" y="0" /><image height="263.722" id="mall-tineke2" width="341.8619" x="0" xlink:href="../clips/mbox/mall-tineke2.png" y="0" /><image height="299.6474" id="ob-janne" width="300.8754" x="0" xlink:href="../clips/mbox/ob-janne.png" y="0" /><image height="284.7982" id="perc1-koend" width="316.5628" x="0" xlink:href="../clips/mbox/perc1-koend.png" y="0" /><image height="322.8676" id="perc2-koend-kids2" width="279.2368" x="0" xlink:href="../clips/mbox/perc2-koend-kids2.png" y="0" /><image height="410.0696" id="tsax-steven" width="219.8566" x="0" xlink:href="../clips/mbox/tsax-steven.png" y="0" /><image height="400.3477" id="tuba-henk3" width="225.1956" x="0" xlink:href="../clips/mbox/tuba-henk3.png" y="0" /></svg>