<?xml version="1.0" encoding="utf-8" ?>
<svg baseProfile="tiny" height="100%" version="1.2" viewBox="0 0 1920 1080" width="100%" xmlns="http://www.w3.org/2000/svg" xmlns:ev="http://www.w3.org/2001/xml-events" xmlns:xlink="http://www.w3.org/1999/xlink"><defs /><image height="432.7147" id="cl1-heleenba" width="228.1939" x="0" xlink:href="../clips/mbox/cl1-heleenba.png" y="0" /><image height="365.2318" id="cl1-roland" width="270.3567" x="0" xlink:href="../clips/mbox/cl1-roland.png" y="0" /><image height="405.0974" id="cl2-fienc" width="243.7509" x="0" xlink:href="../clips/mbox/cl2-fienc.png" y="0" /><image height="360.4307" id="cl3-carolien" width="273.9579" x="0" xlink:href="../clips/mbox/cl3-carolien.png" y="0" /><image height="371.2033" id="cl3-sanderijn-video" width="266.0075" x="0" xlink:href="../clips/mbox/cl3-sanderijn-video.png" y="0" /><image height="389.0913" id="cl-geert" width="253.7781" x="0" xlink:href="../clips/mbox/cl-geert.png" y="0" /><image height="295.4389" id="fl-astrid" width="334.2243" x="0" xlink:href="../clips/mbox/fl-astrid.png" y="0" /><image height="271.5244" id="fl-fiendw" width="363.6611" x="0" xlink:href="../clips/mbox/fl-fiendw.png" y="0" /><image height="216.7817" id="fl-karolien" width="455.4945" x="0" xlink:href="../clips/mbox/fl-karolien.png" y="0" /><image height="276.3403" id="fl-marlies" width="357.3234" x="0" xlink:href="../clips/mbox/fl-marlies.png" y="0" /><image height="318.2116" id="fl-thomas" width="310.3057" x="0" xlink:href="../clips/mbox/fl-thomas.png" y="0" /><image height="266.1045" id="fl-valerie-video" width="371.068" x="0" xlink:href="../clips/mbox/fl-valerie-video.png" y="0" /><image height="275.9947" id="mall-tineke2" width="357.7709" x="0" xlink:href="../clips/mbox/mall-tineke2.png" y="0" /><image height="313.5918" id="ob-janne" width="314.877" x="0" xlink:href="../clips/mbox/ob-janne.png" y="0" /><image height="298.0517" id="perc1-koend" width="331.2944" x="0" xlink:href="../clips/mbox/perc1-koend.png" y="0" /><image height="337.8926" id="perc2-koend-kids2" width="292.2315" x="0" xlink:href="../clips/mbox/perc2-koend-kids2.png" y="0" /><image height="356.6503" id="tpt1-koenvh" width="276.8618" x="0" xlink:href="../clips/mbox/tpt1-koenvh.png" y="0" /><image height="337.8926" id="tpt2-brecht" width="292.2315" x="0" xlink:href="../clips/mbox/tpt2-brecht.png" y="0" /><image height="312.2735" id="tpt2-els" width="316.2064" x="0" xlink:href="../clips/mbox/tpt2-els.png" y="0" /><image height="334.7444" id="tpt2-michielvh" width="294.9799" x="0" xlink:href="../clips/mbox/tpt2-michielvh.png" y="0" /><image height="418.9783" id="tuba-henk3" width="235.6753" x="0" xlink:href="../clips/mbox/tuba-henk3.png" y="0" /></svg>