<?xml version="1.0" encoding="utf-8" ?>
<svg baseProfile="tiny" height="100%" version="1.2" viewBox="0 0 1920 1080" width="100%" xmlns="http://www.w3.org/2000/svg" xmlns:ev="http://www.w3.org/2001/xml-events" xmlns:xlink="http://www.w3.org/1999/xlink"><defs /><image height="281.4317" id="bar-matthias-video" width="491.2026" x="0" xlink:href="../clips/kbox/bar-matthias-video.png" y="0" /><image height="261.3963" id="bsn-chris" width="528.8523" x="0" xlink:href="../clips/kbox/bsn-chris.png" y="0" /><image height="326.1208" id="bsn-koend" width="423.892" x="0" xlink:href="../clips/kbox/bsn-koend.png" y="0" /><image height="319.6713" id="horn-inge" width="432.4442" x="0" xlink:href="../clips/kbox/horn-inge.png" y="0" /><image height="268.8156" id="horn-nathalie" width="514.2559" x="0" xlink:href="../clips/kbox/horn-nathalie.png" y="0" /><image height="368.0188" id="tbn-michieldw3-video" width="375.633" x="0" xlink:href="../clips/kbox/tbn-michieldw3-video.png" y="0" /><image height="341.3813" id="tbn-simon1-video" width="404.9431" x="0" xlink:href="../clips/kbox/tbn-simon1-video.png" y="0" /><image height="355.7688" id="tbn-simon2-video" width="388.567" x="0" xlink:href="../clips/kbox/tbn-simon2-video.png" y="0" /><image height="418.9129" id="tbn-steven" width="329.997" x="0" xlink:href="../clips/kbox/tbn-steven.png" y="0" /><image height="471.9011" id="tpt1-koenvh" width="292.9427" x="0" xlink:href="../clips/kbox/tpt1-koenvh.png" y="0" /><image height="430.6855" id="tpt2-brecht" width="320.9767" x="0" xlink:href="../clips/kbox/tpt2-brecht.png" y="0" /><image height="354.7275" id="tpt2-els" width="389.7076" x="0" xlink:href="../clips/kbox/tpt2-els.png" y="0" /><image height="453.1303" id="tpt2-michielvh" width="305.0778" x="0" xlink:href="../clips/kbox/tpt2-michielvh.png" y="0" /><image height="260.4304" id="tuba-chris" width="530.8136" x="0" xlink:href="../clips/kbox/tuba-chris.png" y="0" /><image height="495.7419" id="tuba-henk2" width="278.8548" x="0" xlink:href="../clips/kbox/tuba-henk2.png" y="0" /></svg>